<svg width="33" height="34" viewBox="0 0 33 34" fill="none" xmlns="http://www.w3.org/2000/svg">
<path d="M20.0693 0.0555055C19.9429 0.0918435 19.6442 0.128181 19.4079 0.1372C18.467 0.155236 15.4277 0.926026 14.3242 1.41566C14.2247 1.46102 13.9442 1.57905 13.691 1.67878C13.0296 1.93262 11.2849 2.76627 11.0137 2.96626C10.887 3.04795 10.679 3.1567 10.5433 3.18402C10.4075 3.22036 10.2991 3.28375 10.2991 3.32009C10.2991 3.35643 10.2266 3.41054 10.1453 3.44688C10.0548 3.4734 9.86487 3.58294 9.71115 3.68267C9.55796 3.78463 9.39775 3.87557 9.23173 3.95481C9.11399 4.00017 8.88777 4.14525 8.72505 4.2731C8.56233 4.40095 8.39961 4.49988 8.37236 4.49988C8.1644 4.49988 5.25027 6.62181 4.42847 7.36448C3.7604 7.97082 2.52135 9.29703 2.52135 9.40445C2.52135 9.43097 2.43986 9.55855 2.33138 9.67659C2.05992 9.9848 1.24659 11.2725 1.01085 11.7532C0.911097 11.9797 0.712131 12.3789 0.58566 12.6507C0.142483 13.5576 -0.0384928 14.5459 0.006751 15.6976C0.0609907 16.8312 0.314197 17.4216 1.08308 18.2004C1.88821 19.0075 2.74731 19.3611 4.10436 19.4335C5.03596 19.4788 5.70535 19.4069 6.63695 19.1433C6.9354 19.0619 7.33334 18.9621 7.52331 18.9078C7.71328 18.8624 7.9305 18.7897 8.02099 18.7354C8.22895 18.6266 9.39683 18.1006 9.44974 18.1006C9.61273 18.1006 11.5212 16.9309 13.2862 15.7519C14.453 14.9721 15.4751 14.2931 15.5656 14.2467C15.6471 14.1923 16.1987 13.8658 16.7866 13.5122C17.3746 13.1674 18.0982 12.7505 18.3969 12.5964C18.6956 12.4423 19.1205 12.2155 19.3465 12.0977C19.5727 11.989 19.9979 11.7895 20.2964 11.6805C20.5948 11.5627 20.9657 11.4086 21.1105 11.345C21.2642 11.2816 21.4809 11.1818 21.6079 11.1275C21.9606 10.9824 22.7567 10.8373 23.5346 10.7826C25.2171 10.6736 26.3921 11.4174 26.999 12.977C27.1438 13.3483 27.1708 13.6571 27.1708 14.7453C27.1708 16.0692 27.0533 16.7946 26.7006 17.6471C26.6281 17.8192 26.5286 18.064 26.4744 18.1911C26.0219 19.2786 25.0903 20.8387 24.023 22.2535C23.0099 23.6137 20.83 25.8714 19.3928 27.0594C18.8954 27.4766 18.3435 27.9299 18.1717 28.075C17.7918 28.3933 17.3486 28.7097 16.8602 29.0363C16.6612 29.163 16.3355 29.3811 16.1366 29.5259C15.5757 29.9068 14.0831 30.7046 13.242 31.0675C12.9978 31.1762 12.6631 31.3213 12.5012 31.394C12.3475 31.4664 12.1395 31.5208 12.04 31.5208C11.9495 31.5208 11.7416 31.5661 11.5786 31.6205C10.9907 31.8292 10.3938 31.4301 10.3938 30.8227C10.3938 30.08 10.7465 29.6076 12.9716 27.3949C15.3777 25.0009 15.6399 24.6473 15.6399 23.7405C15.6399 22.8065 15.1968 22.1718 14.2019 21.6641C13.7678 21.4374 13.6048 21.41 12.8451 21.41C11.9585 21.41 11.4429 21.5371 10.8007 21.927C10.656 22.0177 10.4303 22.1355 10.3033 22.1991C10.1763 22.2628 10.0591 22.3349 10.0318 22.3623C10.0046 22.3896 9.82386 22.5254 9.6249 22.6806C9.14547 23.0431 8.30409 23.9046 7.82573 24.5303C7.49103 24.9656 7.24682 25.3735 6.6769 26.4435C6.20647 27.3323 5.78129 28.9827 5.78129 29.9447C5.78129 31.8942 6.79438 33.4538 8.35939 33.8968C8.82956 34.0329 10.7473 34.0329 11.4077 33.9058C12.0588 33.77 13.7593 33.2427 13.8683 33.1443C13.9303 33.0949 14.0062 33.0663 14.0853 33.0626C14.3205 33.0626 17.007 31.6934 17.9297 31.0948C18.1376 30.959 18.3728 30.8046 18.4633 30.75C18.5448 30.7046 18.9697 30.4418 19.4132 30.1696C19.8474 29.8978 20.227 29.6437 20.2543 29.6166C20.2807 29.5803 20.589 29.3535 20.9327 29.118C21.2854 28.8729 21.6926 28.592 21.8373 28.4922C21.991 28.3832 22.4162 28.057 22.7869 27.7575C25.1388 25.8807 27.2192 23.8765 28.4312 22.3169C28.6302 22.0721 28.8112 21.8453 28.8384 21.8183C28.9107 21.7639 29.5264 20.8751 29.9497 20.204C30.1836 19.8473 30.398 19.478 30.5918 19.0979C30.7638 18.7714 30.9988 18.3272 31.1165 18.1004C31.2342 17.8736 31.4869 17.2842 31.6864 16.7856C31.8764 16.2867 32.0664 15.797 32.1023 15.6981C32.3558 15.0543 32.7447 13.395 32.9165 12.207C33.1064 10.8649 32.9617 8.66151 32.5908 7.44644C32.437 6.94779 32.4011 6.85708 32.0664 6.13164C31.3427 4.57176 30.1849 3.15723 28.8551 2.2326C28.6741 2.10582 28.4482 1.93341 28.3487 1.83474C28.023 1.54457 26.3678 0.800302 25.3999 0.519942C24.838 0.359402 24.2671 0.232219 23.6902 0.139056C22.7107 0.0101493 20.3691 -0.0532433 20.0693 0.0555055Z" fill="#FF0000"/>
</svg>
