<svg width="194" height="210" viewBox="0 0 194 210" fill="none" xmlns="http://www.w3.org/2000/svg">
<path d="M96.5883 193.393C96.5883 193.393 122.897 184.42 145.924 158.111C168.95 131.802 174.626 78.2746 174.626 78.2746L177.973 42.0471C178.26 38.9654 177.987 35.8408 177.084 32.8738C176.146 29.7921 174.44 26.4811 171.337 25.0478C161.483 20.4898 139.94 15.7812 96.5883 15.7812C53.2372 15.7812 31.687 20.4898 21.84 25.0478C18.7369 26.4883 17.0312 29.7921 16.0924 32.8738C15.1894 35.8408 14.9242 38.9583 15.2037 42.0471L18.5505 78.2746C18.5505 78.2746 24.2337 131.795 47.253 158.111C70.2795 184.42 96.5883 193.393 96.5883 193.393Z" fill="#3DB54A"/>
<g style="mix-blend-mode:multiply">
<path d="M53.4242 164.282C30.3977 137.974 24.7217 84.4457 24.7217 84.4457L21.3749 48.2182C21.0882 45.1366 21.3605 42.0119 22.2635 39.0449C23.2024 35.9632 24.908 32.6522 28.0112 31.2189C37.8654 26.6609 59.4084 21.9524 102.76 21.9524C146.111 21.9524 165.919 26.2954 176.282 30.6814C175.265 28.3379 173.709 26.1521 171.344 25.0556C161.49 20.4976 139.947 15.7891 96.5962 15.7891C53.245 15.7891 31.6949 20.4976 21.8479 25.0556C18.7447 26.4961 17.039 29.7999 16.1002 32.8816C15.1972 35.8486 14.932 38.9661 15.2115 42.0549L18.5584 78.2824C18.5584 78.2824 24.2415 131.803 47.2608 158.119C50.2852 161.573 53.3669 164.727 56.4342 167.601C55.4309 166.526 54.4275 165.422 53.4314 164.282H53.4242Z" fill="#CCCCCC"/>
</g>
<path d="M191.376 28.5384C188.259 18.2829 182.174 13.6173 177.616 11.5032C162.344 4.43684 135.089 0.853516 96.5899 0.853516C80.6298 0.853516 66.5975 1.46985 54.5575 2.69535C37.551 4.42252 24.5076 7.368 15.5708 11.5032C11.0128 13.6102 4.92829 18.2757 1.81079 28.5384C0.363123 33.297 -0.13139 38.3065 0.34161 43.4235L3.68845 79.651V79.7513L3.70995 79.8517C3.77445 80.4394 5.30094 94.5219 9.81594 112.052C16.1083 136.454 24.9233 155.259 36.0244 167.937C46.4878 179.891 59.2803 190.462 73.0259 198.503C83.4749 204.616 90.9641 207.239 91.7811 207.519L96.5971 209.16L101.413 207.519C102.23 207.239 109.712 204.616 120.168 198.503C133.914 190.462 146.706 179.898 157.17 167.937C159.879 164.834 162.459 161.372 164.895 157.553C172.428 145.735 178.627 130.491 183.378 112.052C187.9 94.5219 189.427 80.4394 189.484 79.8517V79.7513L189.506 79.651L192.853 43.4235C193.326 38.2993 192.831 33.297 191.383 28.5384H191.376ZM177.975 42.0547L174.628 78.2822C174.628 78.2822 169.762 124.092 150.806 151.784C149.272 154.027 147.645 156.148 145.925 158.119C122.899 184.428 96.5899 193.4 96.5899 193.4C96.5899 193.4 76.7311 186.628 56.4279 167.6C56.0409 167.242 55.6611 166.877 55.2741 166.511C54.8871 166.146 54.5073 165.773 54.1203 165.393C51.8198 163.128 49.5193 160.713 47.2546 158.119C24.2281 131.81 18.5521 78.2822 18.5521 78.2822L15.2053 42.0547C14.9186 38.973 15.191 35.8484 16.094 32.8885C17.0328 29.8069 18.7384 26.4958 21.8416 25.0625C27.8688 22.2747 38.2748 19.4295 55.3816 17.6379C66.2248 16.5055 79.7698 15.796 96.5899 15.796C139.941 15.796 161.491 20.5045 171.338 25.0625C171.431 25.1055 171.525 25.1557 171.618 25.1987C171.625 25.1987 171.632 25.2058 171.639 25.213C171.725 25.256 171.804 25.299 171.883 25.3492C171.983 25.3993 172.076 25.4639 172.177 25.5212C172.248 25.5642 172.32 25.6143 172.392 25.6573C172.42 25.6788 172.456 25.7004 172.485 25.7219C172.557 25.7649 172.628 25.8222 172.693 25.8724C172.994 26.0945 173.273 26.331 173.546 26.589C173.589 26.6249 173.632 26.6678 173.675 26.7108C173.789 26.8255 173.897 26.9402 174.004 27.0548C174.062 27.1122 174.112 27.1695 174.162 27.234C174.212 27.2985 174.269 27.3558 174.312 27.4132C174.721 27.9005 175.086 28.4308 175.409 28.9755C175.574 29.255 175.724 29.5345 175.868 29.8212C175.939 29.9645 176.011 30.1078 176.075 30.2512C176.083 30.2583 176.09 30.2727 176.09 30.2798C176.154 30.416 176.212 30.5522 176.276 30.6884C176.591 31.4194 176.857 32.1575 177.079 32.8885C177.982 35.8484 178.247 38.973 177.96 42.0547H177.975Z" fill="#77C47D"/>
<path d="M81.7319 138.524L47.4609 104.253L61.7441 89.963L81.7319 109.958L131.44 60.25L145.723 74.5403L81.7319 138.524Z" fill="white"/>
</svg>
