<svg width="105" height="113" viewBox="0 0 105 113" fill="none" xmlns="http://www.w3.org/2000/svg">
<path d="M52.0263 103.892C52.0263 103.892 66.2223 99.0506 78.6472 84.8546C91.0721 70.6586 94.1348 41.7755 94.1348 41.7755L95.9407 22.2275C96.0954 20.5647 95.9484 18.8786 95.4612 17.2776C94.9546 15.6148 94.0342 13.8282 92.3598 13.0548C87.0426 10.5954 75.4182 8.05469 52.0263 8.05469C28.6344 8.05469 17.0062 10.5954 11.6928 13.0548C10.0184 13.8321 9.09801 15.6148 8.59142 17.2776C8.10417 18.8786 7.96109 20.5608 8.11191 22.2275L9.91782 41.7755C9.91782 41.7755 12.9844 70.6547 25.4054 84.8546C37.8303 99.0506 52.0263 103.892 52.0263 103.892Z" fill="#3DB54A"/>
<g style="mix-blend-mode:multiply">
<path d="M28.7389 88.1842C16.314 73.9882 13.2513 45.1051 13.2513 45.1051L11.4454 25.5571C11.2907 23.8942 11.4377 22.2082 11.9249 20.6072C12.4315 18.9444 13.3519 17.1578 15.0263 16.3844C20.3435 13.9249 31.9679 11.3843 55.3598 11.3843C78.7517 11.3843 89.4402 13.7277 95.032 16.0944C94.4829 14.8298 93.6437 13.6504 92.3676 13.0587C87.0504 10.5993 75.426 8.05859 52.0341 8.05859C28.6422 8.05859 17.014 10.5993 11.7006 13.0587C10.0262 13.836 9.10583 15.6187 8.59924 17.2815C8.11199 18.8825 7.9689 20.5647 8.11972 22.2314L9.92564 41.7794C9.92564 41.7794 12.9922 70.6586 25.4132 84.8585C27.0451 86.7224 28.708 88.4239 30.3631 89.9746C29.8217 89.3946 29.2803 88.799 28.7428 88.1842H28.7389Z" fill="#CCCCCC"/>
</g>
<path d="M103.174 14.9385C101.492 9.4047 98.2089 6.88724 95.7494 5.74645C87.5087 1.93353 72.8022 0 52.0284 0C43.4164 0 35.8447 0.33257 29.348 0.993838C20.1715 1.9258 13.1334 3.51516 8.31121 5.74645C5.85175 6.88337 2.56862 9.40084 0.886451 14.9385C0.105303 17.5062 -0.161531 20.2093 0.0936952 22.9704L1.89962 42.5184V42.5725L1.91122 42.6267C1.94602 42.9438 2.7697 50.5425 5.20596 60.0014C8.60124 73.1687 13.3577 83.3159 19.3478 90.1567C24.9937 96.607 31.8964 102.311 39.3135 106.65C44.9516 109.948 48.9927 111.364 49.4336 111.515L52.0322 112.4L54.6309 111.515C55.0718 111.364 59.109 109.948 64.751 106.65C72.1681 102.311 79.0708 96.6109 84.7167 90.1567C86.1784 88.4823 87.5706 86.6145 88.8854 84.5534C92.9496 78.1766 96.2947 69.9513 98.8585 60.0014C101.299 50.5425 102.122 42.9438 102.153 42.6267V42.5725L102.165 42.5184L103.971 22.9704C104.226 20.2054 103.959 17.5062 103.178 14.9385H103.174ZM95.9428 22.2318L94.1368 41.7798C94.1368 41.7798 91.5111 66.498 81.2827 81.4404C80.4552 82.6508 79.5774 83.7954 78.6493 84.8589C66.2244 99.0548 52.0284 103.896 52.0284 103.896C52.0284 103.896 41.3127 100.242 30.3573 89.975C30.1485 89.7816 29.9436 89.5844 29.7348 89.3872C29.5259 89.19 29.321 88.9889 29.1122 88.7839C27.8708 87.5619 26.6295 86.2587 25.4075 84.8589C12.9826 70.6629 9.91991 41.7798 9.91991 41.7798L8.114 22.2318C7.95931 20.5689 8.10626 18.8829 8.59351 17.2858C9.10009 15.6229 10.0205 13.8364 11.6949 13.0629C14.9471 11.5587 20.5621 10.0234 29.7928 9.05667C35.6436 8.44567 42.9524 8.06283 52.0284 8.06283C75.4202 8.06283 87.0485 10.6035 92.3619 13.0629C92.4121 13.0861 92.4624 13.1132 92.5127 13.1364C92.5165 13.1364 92.5204 13.1403 92.5243 13.1441C92.5707 13.1674 92.6132 13.1906 92.6558 13.2176C92.7099 13.2447 92.7602 13.2795 92.8143 13.3104C92.853 13.3336 92.8917 13.3607 92.9303 13.3839C92.9458 13.3955 92.9651 13.4071 92.9806 13.4187C93.0193 13.4419 93.0579 13.4729 93.0927 13.4999C93.2551 13.6198 93.406 13.7474 93.5529 13.8866C93.5761 13.906 93.5993 13.9292 93.6225 13.9524C93.6844 14.0142 93.7424 14.0761 93.8004 14.138C93.8313 14.1689 93.8584 14.1999 93.8855 14.2347C93.9126 14.2695 93.9435 14.3004 93.9667 14.3313C94.1871 14.5943 94.3843 14.8805 94.5584 15.1744C94.6473 15.3252 94.7285 15.476 94.8058 15.6307C94.8445 15.708 94.8832 15.7854 94.918 15.8627C94.9219 15.8666 94.9257 15.8743 94.9257 15.8782C94.9605 15.9516 94.9915 16.0251 95.0263 16.0986C95.1964 16.493 95.3395 16.8913 95.4594 17.2858C95.9466 18.8829 96.0897 20.5689 95.935 22.2318H95.9428Z" fill="#77C47D"/>
<path d="M44.0118 74.2869L25.5195 55.7946L33.2266 48.0836L44.0118 58.8727L70.8338 32.0508L78.5409 39.7617L44.0118 74.2869Z" fill="white"/>
</svg>
