<svg width="119" height="119" viewBox="0 0 119 119" fill="none" xmlns="http://www.w3.org/2000/svg">
<path d="M117.882 50.5567C116.971 44.3994 115.112 38.5429 112.454 33.1512C109.209 26.5702 104.78 20.6754 99.4455 15.7458C88.8754 5.97679 74.7534 0 59.2618 0H59.2594C43.7651 0 29.6434 5.97679 19.0732 15.7458C13.739 20.6754 9.30969 26.5702 6.06428 33.1512C3.40672 38.5429 1.54751 44.3994 0.637051 50.5567C0.215996 53.3947 0 56.3011 0 59.2594C0 62.2177 0.215996 65.1241 0.637051 67.9621C1.54751 74.1193 3.40672 79.9755 6.06428 85.3675C9.30969 91.9483 13.739 97.8433 19.0732 102.773C29.6434 112.542 43.7651 118.519 59.2594 118.519H59.2621C74.7536 118.519 88.8757 112.544 99.4458 102.773C104.78 97.8458 109.209 91.9483 112.454 85.3675C115.112 79.9755 116.972 74.1191 117.882 67.9621C118.303 65.1241 118.519 62.2177 118.519 59.2594C118.519 56.3011 118.303 53.3947 117.882 50.5567ZM116.266 67.9621C115.328 74.1385 113.409 79.9949 110.666 85.3675C107.279 92.0166 102.636 97.9226 97.0562 102.773C86.9262 111.582 73.7092 116.925 59.2624 116.925H59.2594C44.8123 116.925 31.5928 111.582 21.4629 102.773C15.8825 97.9199 11.24 92.0142 7.8524 85.3675C5.11008 79.9949 3.19072 74.1385 2.25292 67.9621C1.81819 65.1241 1.59399 62.2177 1.59399 59.2594C1.59399 56.3011 1.81819 53.3947 2.25292 50.5567C3.19072 44.3775 5.11008 38.5238 7.8524 33.1512C11.24 26.5019 15.8825 20.5961 21.4629 15.7458C31.5928 6.93647 44.8123 1.59673 59.2594 1.59673H59.2621C73.7092 1.59673 86.9262 6.93647 97.0559 15.7458C102.636 20.5989 107.279 26.5019 110.666 33.1512C113.408 38.5238 115.328 44.3803 116.266 50.5567C116.7 53.3947 116.924 56.3011 116.924 59.2594C116.925 62.2177 116.701 65.1241 116.266 67.9621Z" fill="#D1302E"/>
<path d="M111.425 50.5561C110.389 44.3223 108.253 38.4521 105.232 33.1507C101.282 26.2224 95.8105 20.2647 89.2732 15.7452C80.743 9.84226 70.4023 6.38086 59.2635 6.38086H59.2607C48.1219 6.38086 37.7787 9.84226 29.2483 15.7452C22.711 20.2647 17.24 26.2224 13.2892 33.1507C10.268 38.4521 8.13265 44.3223 7.09642 50.5561C6.62888 53.3886 6.38281 56.295 6.38281 59.2588C6.38281 62.2226 6.62888 65.1289 7.09642 67.9615C8.13265 74.1953 10.268 80.0655 13.2892 85.3669C17.24 92.2952 22.711 98.2528 29.2483 102.772C37.7787 108.675 48.1219 112.137 59.2607 112.137H59.2635C70.4023 112.137 80.743 108.675 89.2732 102.772C95.8105 98.2528 101.282 92.2952 105.232 85.3669C108.254 80.0682 110.389 74.1953 111.425 67.9615C111.893 65.1289 112.139 62.2226 112.139 59.2588C112.139 56.295 111.893 53.3886 111.425 50.5561ZM56.8684 23.5293C56.8684 22.2087 57.9402 21.1369 59.2607 21.1369H59.2635C60.5813 21.1397 61.6531 22.2087 61.6531 23.5293V76.1693C61.6531 77.4872 60.5813 78.559 59.2635 78.5617H59.2607C57.9402 78.5617 56.8684 77.4872 56.8684 76.1693V23.5293ZM59.2635 97.3834H59.2607C56.4008 97.3834 54.0768 95.0594 54.0768 92.1995C54.0768 89.3423 56.4008 87.0153 59.2607 87.0153H59.2635C62.1234 87.0183 64.4446 89.3423 64.4446 92.1995C64.4446 95.0594 62.1234 97.3804 59.2635 97.3834Z" fill="#D1302E"/>
<path opacity="0.2" d="M112.137 59.2588C112.137 62.2226 111.891 65.1289 111.423 67.9615C110.387 74.1953 108.252 80.0682 105.231 85.3669C101.28 92.2952 95.8087 98.2528 89.2715 102.772C80.7413 108.675 70.4005 112.137 59.2617 112.137V97.3834C62.1216 97.3804 64.4429 95.0594 64.4429 92.1995C64.4429 89.3423 62.1216 87.0183 59.2617 87.0153V78.5614C60.5796 78.5587 61.6513 77.4869 61.6513 76.1691V23.5293C61.6513 22.2087 60.5796 21.1397 59.2617 21.1369V6.38086C70.4005 6.38086 80.7413 9.84226 89.2715 15.7452C95.8087 20.2647 101.28 26.2224 105.231 33.1507C108.252 38.4521 110.387 44.3223 111.423 50.5561C111.891 53.3886 112.137 56.295 112.137 59.2588Z" fill="white"/>
<path opacity="0.2" d="M118.519 59.2594C118.519 62.2177 118.303 65.1241 117.882 67.9621C116.971 74.1193 115.112 79.9755 112.454 85.3675C109.209 91.9483 104.78 97.846 99.4454 102.773C88.8753 112.544 74.7533 118.519 59.2617 118.519V116.925C73.7088 116.925 86.9258 111.582 97.0555 102.773C102.636 97.9226 107.278 92.0166 110.666 85.3675C113.408 79.9949 115.328 74.1385 116.265 67.9621C116.7 65.1241 116.924 62.2177 116.924 59.2594C116.924 56.3011 116.7 53.3947 116.265 50.5567C115.327 44.3803 113.408 38.5238 110.666 33.1512C107.278 26.5019 102.636 20.5989 97.0555 15.7458C86.9261 6.93647 73.7091 1.59673 59.262 1.59673V0C74.7535 0 88.8755 5.97679 99.4457 15.7458C104.78 20.6754 109.209 26.5702 112.454 33.1512C115.112 38.5429 116.971 44.3994 117.882 50.5567C118.303 53.3947 118.519 56.3011 118.519 59.2594Z" fill="white"/>
</svg>
