<svg width="104" height="112" viewBox="0 0 104 112" fill="none" xmlns="http://www.w3.org/2000/svg">
<path d="M51.7597 103.343C51.7597 103.343 65.8824 98.5274 78.2403 84.4047C90.5982 70.2819 93.6491 41.5537 93.6491 41.5537L95.4448 22.1093C95.5993 20.4526 95.4525 18.7766 94.9698 17.1855C94.4678 15.5326 93.5525 13.7562 91.8842 12.9838C86.5974 10.5354 75.0311 8.00977 51.7636 8.00977C28.496 8.00977 16.9298 10.5393 11.6429 12.9838C9.97844 13.7562 9.05933 15.5326 8.55729 17.1855C8.07456 18.7766 7.9278 20.4526 8.08228 22.1093L9.87803 41.5537C9.87803 41.5537 12.9289 70.2819 25.2868 84.4047C37.6447 98.5274 51.7674 103.343 51.7674 103.343H51.7597Z" fill="#F04B49"/>
<g style="mix-blend-mode:multiply">
<path d="M28.5886 87.7143C16.2307 73.5915 13.1798 44.8633 13.1798 44.8633L11.3841 25.4189C11.2296 23.7622 11.3763 22.0862 11.8591 20.4951C12.3611 18.8422 13.2764 17.0658 14.9447 16.2934C20.2315 13.845 31.7978 11.3194 55.0653 11.3194C78.3329 11.3194 88.9684 13.6519 94.5295 16.0038C93.9811 14.7448 93.1469 13.5708 91.8764 12.9838C86.5895 10.5354 75.0233 8.00977 51.7557 8.00977C28.4881 8.00977 16.9219 10.5393 11.6351 12.9838C9.97063 13.7562 9.05151 15.5326 8.54947 17.1855C8.06674 18.7766 7.91999 20.4526 8.07446 22.1093L9.87022 41.5537C9.87022 41.5537 12.9211 70.2819 25.279 84.4047C26.9009 86.2584 28.5538 87.9499 30.2028 89.4946C29.6621 88.9192 29.1254 88.3245 28.5886 87.7143Z" fill="#CCCCCC"/>
</g>
<path d="M102.629 14.8565C100.953 9.34952 97.6901 6.84705 95.2455 5.71553C87.0507 1.9232 72.4182 0 51.7573 0C43.1879 0 35.6573 0.332117 29.1964 0.98863C20.0671 1.91547 13.0656 3.49497 8.26915 5.71553C5.8246 6.84705 2.55748 9.35338 0.881445 14.8565C0.105215 17.4092 -0.161256 20.097 0.093626 22.8466L1.88938 42.291V42.3451L1.90096 42.3991C1.93572 42.7158 2.75444 50.2734 5.17967 59.6847C8.55879 72.7802 13.2895 82.8751 19.2445 89.6835C24.8596 96.1019 31.726 101.775 39.1059 106.089C44.7172 109.371 48.7335 110.781 49.1738 110.927L51.7612 111.808L54.3447 110.927C54.785 110.777 58.8013 109.367 64.4126 106.089C71.7887 101.775 78.6589 96.1019 84.2701 89.6835C85.7261 88.0191 87.1086 86.1615 88.4139 84.107C92.4573 77.762 95.7823 69.5788 98.335 59.6847C100.76 50.2734 101.579 42.7158 101.614 42.3991V42.3451L101.625 42.291L103.421 22.8466C103.676 20.097 103.409 17.4092 102.633 14.8565H102.629ZM95.4386 22.109L93.6428 41.5534C93.6428 41.5534 91.0322 66.1417 80.8563 81.006C80.0337 82.2109 79.1609 83.3462 78.2341 84.4044C65.8762 98.5271 51.7535 103.343 51.7535 103.343C51.7535 103.343 41.0948 99.7089 30.1967 89.4943C29.992 89.3012 29.7835 89.1081 29.5788 88.9073C29.3702 88.7104 29.1656 88.5095 28.9609 88.3087C27.7251 87.0961 26.4893 85.7946 25.2728 84.4044C12.9149 70.2816 9.86408 41.5534 9.86408 41.5534L8.06832 22.109C7.91385 20.4523 8.06061 18.7763 8.54333 17.1891C9.04537 15.5362 9.96063 13.7597 11.6289 12.9874C14.8652 11.489 20.4494 9.96355 29.6328 9.00195C35.4526 8.39178 42.7206 8.01332 51.7535 8.01332C75.0249 8.01332 86.5872 10.5428 91.8741 12.9874C91.9243 13.0105 91.9745 13.0376 92.0247 13.0607C92.0286 13.0607 92.0325 13.0646 92.0363 13.0685C92.0827 13.0916 92.1251 13.1148 92.1676 13.1418C92.2217 13.1689 92.2719 13.2036 92.3221 13.2345C92.3607 13.2577 92.3993 13.2847 92.438 13.3079C92.4534 13.3195 92.4727 13.3311 92.4882 13.3427C92.5268 13.3658 92.5654 13.3967 92.6001 13.4238C92.7623 13.5435 92.9129 13.6709 93.0558 13.8099C93.079 13.8293 93.1022 13.8524 93.1254 13.8756C93.1872 13.9374 93.2451 13.9992 93.2991 14.061C93.33 14.0919 93.3571 14.1228 93.3841 14.1575C93.4111 14.1884 93.442 14.2232 93.4652 14.2541C93.6853 14.5167 93.8784 14.7986 94.0522 15.0959C94.141 15.2427 94.2221 15.3972 94.2994 15.5478C94.338 15.625 94.3766 15.7022 94.4113 15.7795C94.4152 15.7833 94.4191 15.7911 94.4191 15.7949C94.4538 15.8683 94.4847 15.9417 94.5156 16.0151C94.6855 16.4051 94.8284 16.8029 94.9481 17.1968C95.4309 18.7879 95.5776 20.4639 95.4231 22.1168L95.4386 22.109Z" fill="#F27072"/>
<path d="M37.4017 29.5866L30.4766 36.5117L66.1126 72.1478L73.0378 65.2227L37.4017 29.5866Z" fill="white"/>
<path d="M66.1126 29.5866L30.4766 65.2227L37.4017 72.1478L73.0378 36.5117L66.1126 29.5866Z" fill="white"/>
</svg>
