<svg width="105" height="114" viewBox="0 0 105 114" fill="none" xmlns="http://www.w3.org/2000/svg">
<path d="M52.611 104.997C52.611 104.997 38.3216 100.125 25.8179 85.8354C13.3142 71.546 10.2273 42.4788 10.2273 42.4788L8.41036 22.805C8.25407 21.1287 8.40257 19.4329 8.89099 17.8231C9.39896 16.1507 10.325 14.3533 12.013 13.5718C17.3622 11.0945 29.0649 8.53906 52.6071 8.53906C76.1492 8.53906 87.8519 11.0984 93.2011 13.5718C94.8852 14.3533 95.8152 16.1507 96.3231 17.8231C96.8116 19.4329 96.96 21.1287 96.8037 22.805L94.9868 42.4788C94.9868 42.4788 91.8999 71.546 79.3962 85.8354C66.8925 100.125 52.6032 104.997 52.6032 104.997H52.611Z" fill="#F04B49"/>
<g style="mix-blend-mode:multiply">
<path d="M76.0554 89.184C88.5591 74.8946 91.646 45.8274 91.646 45.8274L93.4629 26.1536C93.6192 24.4774 93.4707 22.7816 92.9823 21.1717C92.4743 19.4993 91.5483 17.7019 89.8603 16.9204C84.511 14.4431 72.8083 11.8877 49.2662 11.8877C25.7241 11.8877 14.9631 14.2478 9.33642 16.6274C9.89127 15.3536 10.7353 14.1657 12.0208 13.5718C17.3701 11.0945 29.0727 8.53906 52.6149 8.53906C76.157 8.53906 87.8597 11.0984 93.2089 13.5718C94.893 14.3533 95.823 16.1507 96.3309 17.8231C96.8194 19.4329 96.9679 21.1287 96.8116 22.805L94.9946 42.4788C94.9946 42.4788 91.9078 71.546 79.4041 85.8354C77.763 87.7109 76.0906 89.4224 74.4221 90.9853C74.9692 90.4031 75.5123 89.8014 76.0554 89.184Z" fill="#CCCCCC"/>
</g>
<path d="M1.14016 15.4673C2.83598 9.89538 6.13773 7.36339 8.61112 6.21852C16.9026 2.38144 31.7078 0.435547 52.6124 0.435547C61.283 0.435547 68.9024 0.771583 75.4395 1.43584C84.6766 2.37362 91.7608 3.97176 96.6138 6.21852C99.0871 7.36339 102.393 9.89929 104.089 15.4673C104.874 18.0501 105.144 20.7697 104.886 23.5518L103.069 43.2256V43.2803L103.057 43.335C103.022 43.6554 102.194 51.3022 99.7397 60.8245C96.3207 74.0745 91.5341 84.2885 85.5089 91.1773C79.8275 97.6714 72.8802 103.411 65.4131 107.776C59.7356 111.097 55.6719 112.523 55.2265 112.672L52.6085 113.563L49.9945 112.672C49.549 112.52 45.4853 111.093 39.8079 107.776C32.3447 103.411 25.3935 97.6714 19.716 91.1773C18.2429 89.4932 16.844 87.6137 15.5233 85.535C11.4323 79.1151 8.06799 70.8353 5.48519 60.8245C3.03134 51.3022 2.20298 43.6554 2.16781 43.335V43.2803L2.1561 43.2256L0.339149 23.5518C0.0812607 20.7697 0.350861 18.0501 1.13625 15.4673H1.14016ZM8.41575 22.8055L10.2327 42.4793C10.2327 42.4793 12.8741 67.3577 23.1701 82.3973C24.0024 83.6164 24.8855 84.7652 25.8232 85.8358C38.327 100.125 52.6164 104.998 52.6164 104.998C52.6164 104.998 63.4008 101.321 74.4275 90.9858C74.6346 90.7904 74.8456 90.5951 75.0527 90.3919C75.2637 90.1926 75.4708 89.9894 75.6779 89.7862C76.9282 88.5593 78.1786 87.2425 79.4094 85.8358C91.9131 71.5465 95 42.4793 95 42.4793L96.8169 22.8055C96.9732 21.1292 96.8248 19.4334 96.3363 17.8274C95.8284 16.1551 94.9023 14.3576 93.2143 13.5762C89.9399 12.0601 84.2898 10.5167 74.998 9.54371C69.1095 8.92634 61.7558 8.54342 52.6164 8.54342C29.0703 8.54342 17.3715 11.1028 12.0223 13.5762C11.9715 13.5996 11.9207 13.627 11.8699 13.6504C11.866 13.6504 11.8621 13.6543 11.8582 13.6582C11.8113 13.6817 11.7683 13.7051 11.7253 13.7325C11.6706 13.7598 11.6198 13.795 11.569 13.8262C11.53 13.8497 11.4909 13.877 11.4518 13.9005C11.4362 13.9122 11.4166 13.9239 11.401 13.9356C11.3619 13.9591 11.3229 13.9903 11.2877 14.0177C11.1236 14.1388 10.9712 14.2678 10.8266 14.4084C10.8032 14.428 10.7797 14.4514 10.7563 14.4749C10.6938 14.5374 10.6352 14.5999 10.5805 14.6624C10.5492 14.6937 10.5218 14.7249 10.4945 14.7601C10.4671 14.7914 10.4359 14.8265 10.4124 14.8578C10.1897 15.1235 9.99435 15.4087 9.81852 15.7096C9.72865 15.8581 9.64659 16.0144 9.56844 16.1668C9.52937 16.2449 9.4903 16.3231 9.45513 16.4012C9.45123 16.4051 9.44731 16.4129 9.44731 16.4169C9.41215 16.4911 9.38089 16.5653 9.34962 16.6396C9.1777 17.0342 9.03313 17.4367 8.912 17.8352C8.42358 19.4451 8.2751 21.1409 8.4314 22.8133L8.41575 22.8055Z" fill="#F27072"/>
<path d="M67.1377 30.3701L74.1445 37.377L38.088 73.4335L31.0811 66.4267L67.1377 30.3701Z" fill="white"/>
<path d="M38.088 30.3692L74.1445 66.4258L67.1377 73.4326L31.0811 37.3761L38.088 30.3692Z" fill="white"/>
</svg>
