<svg width="321" height="15" viewBox="0 0 321 15" fill="none" xmlns="http://www.w3.org/2000/svg">
<path d="M157.864 12.084C157.208 12.084 156.624 11.944 156.112 11.664C155.6 11.376 155.196 10.984 154.9 10.488C154.604 9.992 154.456 9.428 154.456 8.796C154.456 8.156 154.604 7.592 154.9 7.104C155.196 6.608 155.6 6.22 156.112 5.94C156.624 5.66 157.208 5.52 157.864 5.52C158.528 5.52 159.116 5.66 159.628 5.94C160.148 6.22 160.552 6.604 160.84 7.092C161.136 7.58 161.284 8.148 161.284 8.796C161.284 9.428 161.136 9.992 160.84 10.488C160.552 10.984 160.148 11.376 159.628 11.664C159.116 11.944 158.528 12.084 157.864 12.084ZM157.864 10.8C158.232 10.8 158.56 10.72 158.848 10.56C159.136 10.4 159.36 10.168 159.52 9.864C159.688 9.56 159.772 9.204 159.772 8.796C159.772 8.38 159.688 8.024 159.52 7.728C159.36 7.424 159.136 7.192 158.848 7.032C158.56 6.872 158.236 6.792 157.876 6.792C157.508 6.792 157.18 6.872 156.892 7.032C156.612 7.192 156.388 7.424 156.22 7.728C156.052 8.024 155.968 8.38 155.968 8.796C155.968 9.204 156.052 9.56 156.22 9.864C156.388 10.168 156.612 10.4 156.892 10.56C157.18 10.72 157.504 10.8 157.864 10.8ZM162.718 12V5.592H164.146V7.356L163.978 6.84C164.17 6.408 164.47 6.08 164.878 5.856C165.294 5.632 165.81 5.52 166.426 5.52V6.948C166.362 6.932 166.302 6.924 166.246 6.924C166.19 6.916 166.134 6.912 166.078 6.912C165.51 6.912 165.058 7.08 164.722 7.416C164.386 7.744 164.218 8.236 164.218 8.892V12H162.718Z" fill="black"/>
<line x1="183" y1="8.5" x2="321" y2="8.5" stroke="#E4E4E4"/>
<line y1="8.5" x2="138" y2="8.5" stroke="#E4E4E4"/>
</svg>
