<svg width="351" height="259" viewBox="0 0 351 259" fill="none" xmlns="http://www.w3.org/2000/svg">
<path d="M315.163 240.659H291.961V240.835H315.163V240.659Z" fill="#EBEBEB"/>
<path d="M232.025 242.557H225.934V242.733H232.025V242.557Z" fill="#EBEBEB"/>
<path d="M291.261 234.152H277.816V234.328H291.261V234.152Z" fill="#EBEBEB"/>
<path d="M67.0054 235.331H36.7461V235.507H67.0054V235.331Z" fill="#EBEBEB"/>
<path d="M77.6789 235.331H73.2422V235.507H77.6789V235.331Z" fill="#EBEBEB"/>
<path d="M157.719 238.289H92.0977V238.465H157.719V238.289Z" fill="#EBEBEB"/>
<path d="M167.001 198.142H31.733C29.5278 198.142 27.7344 196.348 27.7344 194.143V3.99863C27.7344 1.79339 29.5278 0 31.733 0H167.001C169.206 0 171 1.79339 171 3.99863V194.139C171 196.345 169.206 198.138 167.001 198.138V198.142ZM31.733 0.17597C29.6251 0.17597 27.9103 1.89073 27.9103 3.99863V194.139C27.9103 196.247 29.6251 197.962 31.733 197.962H167.001C169.109 197.962 170.824 196.247 170.824 194.139V3.99863C170.824 1.89073 169.109 0.17597 167.001 0.17597H31.733Z" fill="#EBEBEB"/>
<path d="M318.517 198.142H183.249C181.043 198.142 179.25 196.348 179.25 194.143V3.99863C179.25 1.79339 181.043 0 183.249 0H318.517C320.722 0 322.516 1.79339 322.516 3.99863V194.139C322.516 196.345 320.722 198.138 318.517 198.138V198.142ZM183.249 0.17597C181.141 0.17597 179.426 1.89073 179.426 3.99863V194.139C179.426 196.247 181.141 197.962 183.249 197.962H318.517C320.625 197.962 322.34 196.247 322.34 194.139V3.99863C322.34 1.89073 320.625 0.17597 318.517 0.17597H183.249Z" fill="#EBEBEB"/>
<path d="M350.258 229.382H0V229.558H350.258V229.382Z" fill="#EBEBEB"/>
<path d="M284.953 76.959H257.262C254.626 76.959 252.492 79.0931 252.492 81.7289V99.5655C252.492 102.201 254.626 104.335 257.262 104.335H265.226L268.782 108.985C269.954 110.521 272.264 110.521 273.436 108.985L276.993 104.335H284.957C287.593 104.335 289.727 102.201 289.727 99.5655V81.7289C289.727 79.0931 287.593 76.959 284.957 76.959H284.953Z" fill="#E0E0E0"/>
<path d="M265.156 92.5529C263.771 91.1938 263.172 89.7075 263.172 88.3746C263.172 86.102 264.684 84.5894 266.983 84.5894C269.125 84.5894 269.855 85.5815 271.109 87.0155C272.363 85.5815 273.094 84.5894 275.235 84.5894C277.53 84.5894 279.047 86.102 279.047 88.3746C279.047 89.7037 278.448 91.1938 277.062 92.5529L271.109 98.4797L265.156 92.5529Z" fill="white"/>
<path d="M70.6527 217.206C69.024 215.608 68.3164 213.852 68.3164 212.287C68.3164 209.61 70.1023 207.828 72.8055 207.828C75.329 207.828 76.1901 208.996 77.6653 210.688C79.1404 208.996 80.0015 207.828 82.525 207.828C85.232 207.828 87.0141 209.61 87.0141 212.287C87.0141 213.856 86.3065 215.608 84.6778 217.206L77.6653 224.189L70.6527 217.206Z" fill="#E0E0E0"/>
<path d="M86.4927 225.087C85.4968 224.11 85.0625 223.036 85.0625 222.077C85.0625 220.441 86.152 219.352 87.8069 219.352C89.3494 219.352 89.8736 220.067 90.7796 221.1C91.6819 220.067 92.2099 219.352 93.7524 219.352C95.4073 219.352 96.4968 220.441 96.4968 222.077C96.4968 223.036 96.0625 224.106 95.0666 225.087L90.7796 229.356L86.4927 225.087Z" fill="#EBEBEB"/>
<path d="M266.351 26.1479H234.579C231.558 26.1479 229.105 28.5965 229.105 31.6217V52.0866C229.105 55.1081 231.554 57.5604 234.579 57.5604H243.715L247.796 62.8956C249.14 64.6553 251.791 64.6553 253.135 62.8956L257.216 57.5604H266.351C269.373 57.5604 271.825 55.1118 271.825 52.0866V31.6217C271.825 28.6003 269.376 26.1479 266.351 26.1479Z" fill="#F5F5F5"/>
<path d="M240.486 50.0798H244.088V37.2827H239.887L240.486 50.0798Z" fill="#E0E0E0"/>
<path d="M260.784 39.2859C260.6 38.7168 260.027 37.5299 259.485 37.2866C257.905 36.5789 254.453 36.8036 251.397 37.2079C251.525 36.9646 251.633 36.7437 251.693 36.5864C251.955 35.8975 252.378 34.4374 252.33 33.6998C252.285 33.0221 251.97 31.517 251.397 31.1538C251.094 30.9629 250.203 30.8917 249.956 31.1538C249.349 31.7866 249.773 33.7896 249.533 34.632C249.312 35.4071 248.305 36.7699 247.444 37.8369C246.377 38.0354 245.695 38.1851 245.695 38.1851V49.4809C245.695 49.4809 254.924 51.9931 257.893 51.1807C259.035 50.8699 259.574 48.8893 259.994 47.7811C260.746 45.793 261.446 41.3076 260.795 39.2821L260.784 39.2859Z" fill="#E0E0E0"/>
<path d="M185.983 43.9243C185.646 39.7646 182.172 36.5635 178.001 36.5635H172.247C168.076 36.5635 164.601 39.7646 164.264 43.9243L163.781 48.8065H186.466L185.983 43.9243Z" fill="#EBEBEB"/>
<path d="M175.125 36.5675C178.109 36.5675 180.528 34.1486 180.528 31.1648C180.528 28.181 178.109 25.7622 175.125 25.7622C172.141 25.7622 169.723 28.181 169.723 31.1648C169.723 34.1486 172.141 36.5675 175.125 36.5675Z" fill="#EBEBEB"/>
<path d="M67.9565 119.217C67.0917 119.217 66.3017 119.521 65.6802 120.026L61.3446 116.529C61.5917 116.039 61.7377 115.485 61.7377 114.901C61.7377 112.905 60.1203 111.288 58.1247 111.288C56.1291 111.288 54.5117 112.905 54.5117 114.901C54.5117 116.896 56.1291 118.514 58.1247 118.514C58.9896 118.514 59.7796 118.21 60.4011 117.705L64.7367 121.202C64.4896 121.692 64.3436 122.246 64.3436 122.83C64.3436 123.415 64.4858 123.969 64.7367 124.459L60.4011 127.956C59.7796 127.451 58.9858 127.147 58.1247 127.147C56.1291 127.147 54.5117 128.765 54.5117 130.76C54.5117 132.756 56.1291 134.373 58.1247 134.373C60.1203 134.373 61.7377 132.756 61.7377 130.76C61.7377 130.173 61.5954 129.622 61.3446 129.132L65.6802 125.635C66.3017 126.14 67.0954 126.443 67.9565 126.443C69.9521 126.443 71.5695 124.826 71.5695 122.83C71.5695 120.835 69.9521 119.217 67.9565 119.217Z" fill="#E0E0E0"/>
<path d="M175.127 258.327C250.14 258.327 310.949 254.775 310.949 250.394C310.949 246.012 250.14 242.46 175.127 242.46C100.114 242.46 39.3047 246.012 39.3047 250.394C39.3047 254.775 100.114 258.327 175.127 258.327Z" fill="#F5F5F5"/>
<path d="M242.977 152.109H295.993C300.063 152.109 303.365 155.407 303.365 159.481V199.782C303.365 203.851 300.066 207.154 295.993 207.154H255.962C255.175 213.597 249.694 218.595 243.037 218.595C242.741 218.595 242.453 218.569 242.165 218.551C244.235 215.821 245.928 211.867 247.032 207.154H242.974C238.904 207.154 235.602 203.855 235.602 199.782V159.481C235.602 155.411 238.9 152.109 242.974 152.109H242.977Z" fill="#5274B8"/>
<path opacity="0.4" d="M242.977 152.109H295.993C300.063 152.109 303.365 155.407 303.365 159.481V199.782C303.365 203.851 300.066 207.154 295.993 207.154H255.962C255.175 213.597 249.694 218.595 243.037 218.595C242.741 218.595 242.453 218.569 242.165 218.551C244.235 215.821 245.928 211.867 247.032 207.154H242.974C238.904 207.154 235.602 203.855 235.602 199.782V159.481C235.602 155.411 238.9 152.109 242.974 152.109H242.977Z" fill="white"/>
<path d="M240.475 167.777L237.854 163.348L239.49 160.521C239.703 160.151 239.741 159.705 239.587 159.308L239.464 158.99C239.258 158.455 238.752 158.095 238.18 158.08L235.607 158.013C235.076 157.998 234.582 158.282 234.327 158.75L233.807 159.705C233.552 160.169 233.533 160.727 233.758 161.21L234.866 163.599L236.914 169.095L240.471 167.785L240.475 167.777Z" fill="#923D39"/>
<path d="M261.343 166.998L246.378 177.894L239.347 164.741L235.355 166.47C235.355 166.47 241.511 186.407 245.09 185.602C248.666 184.798 258.771 179.803 262.062 176.373C263.72 174.644 264.982 171.472 263.342 167.549C263.016 166.766 262.035 166.5 261.347 166.998H261.343Z" fill="#5274B8"/>
<path d="M266.935 141.063C266.935 141.063 261.648 142.449 264.097 148.829C264.097 148.829 266.729 148.136 267.155 146.432C267.586 144.729 267.987 142.34 267.987 142.34L266.935 141.063Z" fill="#263238"/>
<path opacity="0.3" d="M266.935 141.063C266.935 141.063 261.648 142.449 264.097 148.829C264.097 148.829 266.729 148.136 267.155 146.432C267.586 144.729 267.987 142.34 267.987 142.34L266.935 141.063Z" fill="black"/>
<path d="M279.421 166.37L269.768 166.051L265.774 166.632L265.234 173.91L273.011 176.497L281.311 174.842L281.746 167.83L281.154 166.426L279.421 166.37Z" fill="#923D39"/>
<path d="M266.277 207.15H279.935C280.074 202.338 280.785 177.351 280.632 177.501C280.467 177.665 282.073 172.177 282.073 172.177V169.96L280.632 167.575C280.632 167.575 277.532 172.3 272.432 172.068C267.599 171.847 266.767 167.021 266.767 167.021L266.157 174.397L265.547 192.256L266.322 199.826L266.273 207.153L266.277 207.15Z" fill="#5274B8"/>
<path opacity="0.6" d="M266.277 207.15H279.935C280.074 202.338 280.785 177.351 280.632 177.501C280.467 177.665 282.073 172.177 282.073 172.177V169.96L280.632 167.575C280.632 167.575 277.532 172.3 272.432 172.068C267.599 171.847 266.767 167.021 266.767 167.021L266.157 174.397L265.547 192.256L266.322 199.826L266.273 207.153L266.277 207.15Z" fill="white"/>
<path d="M260.841 207.15H268.243C269.696 197.509 269.894 179.886 269.894 179.886C269.894 179.886 268.269 173.674 267.828 169.634C267.386 165.595 273.152 166.13 278.199 166.796C283.246 167.463 274.271 180.219 274.271 180.219C274.271 180.219 273.638 197.46 275.114 207.15H293.362C292.448 204.581 289.76 196.685 289.12 191.088C288.345 184.322 293.003 174.449 292.336 169.634C291.67 164.82 275.713 165.8 275.713 165.8C275.713 165.8 265.491 165.733 263.215 165.838C260.549 165.958 259.49 172.97 258.228 178.511C256.966 184.053 259.284 189.538 260.549 196.509C261.377 201.081 261.118 204.989 260.845 207.15H260.841Z" fill="#263238"/>
<path d="M268.971 165.778C272.296 165.778 275.714 165.801 275.714 165.801C275.714 165.801 277.758 165.677 280.409 165.737C281.465 166.46 282.858 168.13 281.75 171.679L279.44 172.566L279.863 174.839C279.863 174.839 277.201 179.058 274.262 180.657C274.269 180.373 274.277 180.219 274.277 180.219C274.277 180.219 283.251 167.463 278.204 166.797C273.157 166.13 267.388 165.599 267.833 169.635C268.275 173.674 269.9 179.886 269.9 179.886C269.9 179.886 269.9 179.953 269.9 180.073C268.477 178.804 267.268 176.561 266.388 173.895L267.331 171.275L265.242 170.125C265.242 170.125 265.572 167.044 268.979 165.778H268.971Z" fill="#5274B8"/>
<path d="M268.861 169.604C268.329 168.204 269.067 167.294 269.067 167.294C272.863 166.006 272.515 163.157 271.639 160.514L277.756 154.276C277.393 157.601 277.258 165.239 279.43 167.901V168.511C276.555 171.922 273.14 171.9 271.275 171.548C270.197 171.345 269.25 170.634 268.861 169.608V169.604Z" fill="#923D39"/>
<path opacity="0.1" d="M271.641 160.514L276.497 155.561L277.62 155.965C277.586 156.564 277.56 157.215 277.552 157.901C276.938 159.162 275.46 160.933 272.008 161.824C271.91 161.39 271.783 160.952 271.641 160.518V160.514Z" fill="black"/>
<path d="M280.871 148.765C279.392 154.419 278.89 156.845 275.423 159.211C270.208 162.775 263.589 159.724 263.345 153.745C263.128 148.361 265.577 140.023 271.623 138.847C275.94 137.982 280.137 140.783 281.002 145.1C281.245 146.317 281.201 147.571 280.875 148.765H280.871Z" fill="#923D39"/>
<path d="M267.438 150.226C266.816 151.207 266.06 152.101 265.191 152.876C265.603 153.318 266.187 153.55 266.786 153.52L267.438 150.226Z" fill="#731012"/>
<path d="M273.466 148.144C273.507 148.144 273.544 148.132 273.582 148.11C273.69 148.043 273.728 147.9 273.66 147.792C273.66 147.792 273.66 147.792 273.66 147.788C273.226 147.02 272.444 146.515 271.564 146.433C271.437 146.433 271.332 146.53 271.324 146.657C271.324 146.785 271.418 146.889 271.541 146.897C272.264 146.979 272.908 147.402 273.264 148.035C273.305 148.102 273.383 148.144 273.462 148.144H273.466Z" fill="#263238"/>
<path d="M264.097 146.433C264.138 146.433 264.175 146.422 264.213 146.399C264.834 146.028 265.598 145.976 266.265 146.264C266.377 146.324 266.519 146.283 266.579 146.171C266.635 146.055 266.59 145.916 266.478 145.856C265.673 145.497 264.741 145.549 263.981 145.998C263.868 146.058 263.823 146.197 263.88 146.309C263.921 146.392 264.007 146.44 264.097 146.436V146.433Z" fill="#263238"/>
<path d="M269.158 155.07C268.884 155.07 268.615 155.047 268.349 154.999C268.27 154.988 268.218 154.913 268.233 154.838C268.233 154.838 268.233 154.838 268.233 154.834C268.248 154.759 268.319 154.707 268.394 154.718C269.592 154.954 270.831 154.606 271.734 153.786C271.786 153.726 271.876 153.722 271.936 153.774C271.996 153.827 272 153.917 271.947 153.977C271.195 154.688 270.199 155.081 269.162 155.07H269.158Z" fill="#263238"/>
<path d="M278.97 153.187C278.97 153.187 276.862 151.154 277.251 147.44C277.251 147.44 274.978 145.111 275.087 142.617C275.087 142.617 274.413 144.605 275.083 146.024C275.083 146.024 269.183 145.594 269.321 142.617C269.321 142.617 268.932 144.115 269.819 144.89C269.819 144.89 264.574 145.111 265.285 142.393C265.993 139.675 270.104 138.345 270.104 138.345C270.104 138.345 274.02 135.017 279.434 140.895C279.434 140.895 285.81 144.875 281.291 151.513L278.97 153.183V153.187Z" fill="#263238"/>
<path d="M281.337 153.557C280.809 154.557 279.907 155.306 278.829 155.643C277.395 156.073 276.65 154.8 277.02 153.43C277.353 152.202 278.507 150.491 279.959 150.659C281.015 150.813 281.745 151.794 281.588 152.85C281.55 153.101 281.464 153.344 281.333 153.561L281.337 153.557Z" fill="#923D39"/>
<path d="M271.686 149.42C271.637 149.907 271.334 150.274 271.012 150.244C270.69 150.214 270.476 149.791 270.532 149.297C270.589 148.802 270.884 148.443 271.199 148.473C271.517 148.503 271.734 148.926 271.686 149.416V149.42Z" fill="#273238"/>
<path d="M266.16 148.84C266.111 149.326 265.808 149.693 265.494 149.663C265.175 149.633 264.958 149.21 265.007 148.72C265.055 148.229 265.359 147.866 265.673 147.896C265.991 147.926 266.216 148.349 266.16 148.84Z" fill="#273238"/>
<path d="M265.814 147.938L264.676 147.477C264.676 147.477 265.185 148.454 265.814 147.938Z" fill="#273238"/>
<path d="M271.337 148.514L270.199 148.054C270.199 148.054 270.708 149.031 271.337 148.514Z" fill="#273238"/>
<path d="M278.473 158.29C279.517 158.29 280.364 157.44 280.364 156.399C280.364 155.924 280.188 155.471 279.866 155.119L279.622 155.343C279.888 155.632 280.034 156.006 280.034 156.399C280.034 157.26 279.334 157.957 278.477 157.957C277.619 157.957 276.919 157.256 276.919 156.399C276.919 155.542 277.619 154.842 278.477 154.842C278.697 154.842 278.915 154.886 279.113 154.976L279.248 154.673C279.004 154.564 278.742 154.508 278.473 154.508C277.428 154.508 276.582 155.358 276.582 156.399C276.582 157.44 277.432 158.29 278.473 158.29Z" fill="#5274B8"/>
<g opacity="0.6">
<path d="M278.473 158.29C279.517 158.29 280.364 157.44 280.364 156.399C280.364 155.924 280.188 155.471 279.866 155.119L279.622 155.343C279.888 155.632 280.034 156.006 280.034 156.399C280.034 157.26 279.334 157.957 278.477 157.957C277.619 157.957 276.919 157.256 276.919 156.399C276.919 155.542 277.619 154.842 278.477 154.842C278.697 154.842 278.915 154.886 279.113 154.976L279.248 154.673C279.004 154.564 278.742 154.508 278.473 154.508C277.428 154.508 276.582 155.358 276.582 156.399C276.582 157.44 277.432 158.29 278.473 158.29Z" fill="white"/>
</g>
<path d="M277.173 186.894L272.029 187.119L270.306 184.341C270.082 183.978 269.704 183.738 269.28 183.682L268.94 183.641C268.371 183.57 267.813 183.847 267.532 184.345L266.263 186.58C266.001 187.041 266.019 187.61 266.308 188.055L266.903 188.965C267.195 189.407 267.678 189.688 268.206 189.717L270.838 189.867L276.649 190.65L277.169 186.894H277.173Z" fill="#923D39"/>
<path d="M286.316 168.129L288.873 186.464H273.961L273.602 190.803C273.602 190.803 294.089 194.768 295.062 191.238C296.04 187.703 296.395 176.437 294.92 171.922C294.179 169.646 291.974 167.036 287.739 166.632C286.893 166.549 286.196 167.291 286.316 168.129Z" fill="#5274B8"/>
<path d="M221.146 62.3939H204.773L188.262 251.097H204.634C212.224 251.097 218.914 244.946 219.577 237.356L233.681 76.1307C234.343 68.5416 228.731 62.3901 221.142 62.3901L221.146 62.3939Z" fill="#263238"/>
<path d="M231.282 81.3199C231.345 80.5935 231.985 80.002 232.715 80.002C233.446 80.002 233.981 80.5898 233.917 81.3199L232.813 93.9635C232.749 94.6898 232.109 95.2814 231.379 95.2814C230.649 95.2814 230.113 94.6936 230.177 93.9635L231.282 81.3199Z" fill="#5274B8"/>
<path opacity="0.3" d="M231.282 81.3199C231.345 80.5935 231.985 80.002 232.715 80.002C233.446 80.002 233.981 80.5898 233.917 81.3199L232.813 93.9635C232.749 94.6898 232.109 95.2814 231.379 95.2814C230.649 95.2814 230.113 94.6936 230.177 93.9635L231.282 81.3199Z" fill="white"/>
<path d="M201.283 251.097H133.83C126.241 251.097 120.629 244.946 121.291 237.356L135.395 76.1307C136.058 68.5416 142.748 62.3901 150.338 62.3901H217.79C225.379 62.3901 230.992 68.5416 230.329 76.1307L216.225 237.356C215.562 244.946 208.872 251.097 201.283 251.097Z" fill="#5274B8"/>
<path d="M217.52 65.5464H199.987C198.838 65.5464 197.793 66.4 197.55 67.5382L197.43 68.0886C196.831 70.8704 194.281 72.9558 191.477 72.9558H174.809C172.004 72.9558 169.818 70.8704 169.709 68.0886L169.687 67.5382C169.642 66.4 168.747 65.5464 167.598 65.5464H150.064C144.216 65.5464 139.06 70.2863 138.551 76.1345L124.448 237.36C123.935 243.208 128.263 247.948 134.107 247.948H201.56C207.408 247.948 212.563 243.208 213.073 237.36L227.176 76.1345C227.689 70.2863 223.361 65.5464 217.517 65.5464H217.52Z" fill="#5274B8"/>
<path opacity="0.7" d="M217.52 65.5464H199.987C198.838 65.5464 197.793 66.4 197.55 67.5382L197.43 68.0886C196.831 70.8704 194.281 72.9558 191.477 72.9558H174.809C172.004 72.9558 169.818 70.8704 169.709 68.0886L169.687 67.5382C169.642 66.4 168.747 65.5464 167.598 65.5464H150.064C144.216 65.5464 139.06 70.2863 138.551 76.1345L124.448 237.36C123.935 243.208 128.263 247.948 134.107 247.948H201.56C207.408 247.948 212.563 243.208 213.073 237.36L227.176 76.1345C227.689 70.2863 223.361 65.5464 217.517 65.5464H217.52Z" fill="white"/>
<g opacity="0.2">
<path d="M179.1 68.2498C179.659 67.715 179.714 66.8662 179.224 66.3539C178.733 65.8415 177.883 65.8597 177.324 66.3945C176.765 66.9293 176.71 67.7781 177.201 68.2905C177.691 68.8028 178.541 68.7846 179.1 68.2498Z" fill="black"/>
<path d="M189.169 65.9922H184.575C183.833 65.9922 183.182 66.5912 183.118 67.3325C183.055 68.0739 183.601 68.6729 184.343 68.6729H188.937C189.678 68.6729 190.329 68.0739 190.393 67.3325C190.457 66.5912 189.91 65.9922 189.169 65.9922Z" fill="black"/>
</g>
<path d="M146.172 72.9263H147.591L147.714 71.5073H146.295L146.172 72.9263Z" fill="#5274B8"/>
<path d="M149.131 71.5069L149.008 72.9259H150.423L150.55 71.5069L150.674 70.0879H149.255L149.131 71.5069Z" fill="#5274B8"/>
<path d="M152.218 68.6729L152.095 70.0881L151.967 71.5071L151.844 72.9261H153.263L153.386 71.5071L153.51 70.0881L153.637 68.6729H152.218Z" fill="#5274B8"/>
<path d="M213.212 68.7666L213.122 69.8075H212.43L212.246 71.8891H212.939L212.849 72.93H219.09L219.453 68.7703H213.212V68.7666ZM215.713 71.8891H213.631L213.815 69.8075H215.897L215.713 71.8891Z" fill="#5274B8"/>
<g opacity="0.4">
<path d="M174.854 72.9521L128.289 246.095C129.888 247.259 131.883 247.945 134.1 247.945H137.739L184.802 72.9521H174.854Z" fill="white"/>
<path d="M217.518 65.5464H199.984C198.835 65.5464 197.79 66.4 197.547 67.5382L197.427 68.0886C196.843 70.7993 194.41 72.8398 191.691 72.9446L144.629 247.945H180.527L227.181 74.4609C226.818 69.4102 222.793 65.5464 217.518 65.5464Z" fill="white"/>
</g>
<path d="M147.045 112.542L144.944 112.085C144.375 111.962 144.05 111.359 144.259 110.816L147.191 103.148L150.549 103.879L148.161 111.883C148.018 112.359 147.532 112.647 147.049 112.538L147.045 112.542Z" fill="#5274B8"/>
<path d="M155.187 102.733C154.603 102.605 154.236 102.032 154.36 101.448L154.644 100.138C154.772 99.5539 155.345 99.187 155.929 99.3105C156.513 99.4378 156.88 100.011 156.756 100.595L156.471 101.905C156.344 102.489 155.771 102.856 155.187 102.733Z" fill="#5274B8"/>
<path d="M153.114 96.203C153.114 96.203 145.128 95.2932 142.335 93.8592C135.76 90.4821 129.482 82.4287 128.149 82.1404C125.977 81.6686 123.019 86.8092 121.537 93.6196C120.054 100.434 120.612 106.338 122.783 106.81C124.116 107.098 133.173 102.381 140.556 102.04C143.694 101.894 151.336 104.384 151.336 104.384L153.114 96.203Z" fill="#5274B8"/>
<path opacity="0.3" d="M153.114 96.203C153.114 96.203 145.128 95.2932 142.335 93.8592C135.76 90.4821 129.482 82.4287 128.149 82.1404C125.977 81.6686 123.019 86.8092 121.537 93.6196C120.054 100.434 120.612 106.338 122.783 106.81C124.116 107.098 133.173 102.381 140.556 102.04C143.694 101.894 151.336 104.384 151.336 104.384L153.114 96.203Z" fill="white"/>
<path d="M129.392 95.3306C127.909 102.145 124.951 107.285 122.78 106.81C120.608 106.338 120.05 100.434 121.533 93.6196C123.015 86.8054 125.973 81.6649 128.145 82.1404C130.316 82.6121 130.874 88.5165 129.392 95.3306Z" fill="#5274B8"/>
<path opacity="0.4" d="M129.392 95.3306C127.909 102.145 124.951 107.285 122.78 106.81C120.608 106.338 120.05 100.434 121.533 93.6196C123.015 86.8054 125.973 81.6649 128.145 82.1404C130.316 82.6121 130.874 88.5165 129.392 95.3306Z" fill="black"/>
<path d="M151.817 95.2745L148.115 94.4696C147.107 94.2487 146.111 94.9263 145.969 95.9484C145.838 96.877 145.67 97.8392 145.456 98.8201C145.243 99.8011 144.999 100.748 144.73 101.647C144.434 102.635 145.059 103.665 146.067 103.882L150.462 104.837C153.094 105.41 154.992 103.556 155.528 100.906C156.048 98.3371 154.375 95.8324 151.817 95.2745Z" fill="#263238"/>
<path d="M125.582 93.9414L125.35 95.0085C125.216 95.63 125.545 96.2552 126.129 96.4986L128.825 97.6181C129.031 96.8805 129.225 96.1167 129.398 95.3305C129.57 94.5405 129.712 93.7692 129.828 93.0091L126.912 92.9081C126.279 92.8856 125.717 93.3199 125.582 93.9414Z" fill="#263238"/>
<path opacity="0.8" d="M125.582 93.9414L125.35 95.0085C125.216 95.63 125.545 96.2552 126.129 96.4986L128.825 97.6181C129.031 96.8805 129.225 96.1167 129.398 95.3305C129.57 94.5405 129.712 93.7692 129.828 93.0091L126.912 92.9081C126.279 92.8856 125.717 93.3199 125.582 93.9414Z" fill="white"/>
<path opacity="0.2" d="M127.616 94.9414C127.47 95.619 127.301 96.2742 127.129 96.9145L128.821 97.6184C129.027 96.8808 129.222 96.117 129.394 95.3307C129.566 94.5408 129.709 93.7695 129.825 93.0094L127.99 92.9458C127.881 93.601 127.762 94.2637 127.616 94.9414Z" fill="black"/>
<path d="M192.335 95.3641C192.335 95.3641 194.372 96.2701 196.427 94.9223C198.576 93.5145 202.62 95.2855 201.395 101.021C199.295 110.887 194.907 117.967 197.749 120.951C197.749 120.951 188.28 121.385 189.68 113.021C190.732 106.75 197.857 99.6285 196.139 98.2095C195.566 97.7378 194.735 97.9812 192.043 97.9812L192.331 95.3641H192.335Z" fill="#263238"/>
<path d="M192.047 97.9815C193.713 97.9815 194.967 98.1425 195.892 98.442C196.491 96.7122 196.461 95.1996 196.394 94.4883C194.203 94.7279 192.335 95.3644 192.335 95.3644L192.047 97.9815Z" fill="#5274B8"/>
<path d="M183.13 88.176C183.13 88.176 179.191 87.049 181.789 84.5106C185.181 81.1934 190.004 87.401 190.004 87.401C190.004 87.401 201.299 92.3394 191.973 103.792C191.973 103.792 188.607 109.817 187.903 107.476C187.199 105.133 191.883 98.4796 191.883 98.4796L191.602 92.5266L190.307 90.2053L186.237 87.884L183.126 88.176H183.13Z" fill="#263238"/>
<path d="M167.514 121.718C166.391 119.884 163.991 119.307 162.157 120.43L162.097 120.468C160.876 121.217 159.57 122.055 158.282 122.819L154.392 125.155C152.572 126.23 150.741 127.263 148.899 128.27C148.79 126.971 148.779 125.522 148.835 124.07C148.884 122.43 149 120.76 149.127 119.079C149.24 117.402 149.416 115.694 149.562 114.032V113.987C149.64 113.137 149.139 112.306 148.3 111.999C147.293 111.628 146.177 112.145 145.806 113.152C145.185 114.841 144.694 116.507 144.208 118.214C143.744 119.921 143.339 121.651 143.01 123.429C142.703 125.219 142.426 127.02 142.422 129.049C142.441 130.083 142.456 131.131 142.879 132.565C143.137 133.28 143.44 134.197 144.56 135.186C145.114 135.661 145.896 136.062 146.686 136.215C147.473 136.369 148.154 136.309 148.731 136.2C148.888 136.17 149.056 136.122 149.206 136.058L149.434 135.965C150.925 135.35 152.415 134.729 153.856 134.033C155.309 133.355 156.743 132.644 158.151 131.891C159.566 131.15 160.955 130.363 162.325 129.547C163.695 128.709 165.032 127.907 166.41 126.953C168.087 125.781 168.593 123.486 167.511 121.718H167.514Z" fill="#E77B62"/>
<path d="M170.945 116.608C173.304 121.363 169.908 125.493 163.681 132.101C158.137 127.466 157.23 121.73 157.23 121.73C157.23 121.73 164.408 115.788 170.945 116.608Z" fill="#5274B8"/>
<path opacity="0.2" d="M171.175 122.254C168.869 120.85 166.285 120.221 164.466 122.512C162.44 125.069 160.782 126.586 159.621 127.465C160.572 128.971 161.879 130.592 163.68 132.101C167.397 128.154 170.093 125.092 171.171 122.254H171.175Z" fill="black"/>
<path d="M147.776 105.088L149.379 106.143C149.982 106.54 150.356 107.203 150.378 107.926L150.502 111.295C150.551 112.643 149.944 113.931 148.873 114.751L148.211 115.26C145.436 113.691 143.591 109.947 143.591 109.947L142.947 108.94C142.374 108.042 142.595 106.915 143.456 106.349L145.436 105.046C146.122 104.597 147.05 104.616 147.773 105.091L147.776 105.088Z" fill="#E77B62"/>
<path d="M165.451 247.945C169.083 236.713 171.558 224.29 169.094 215.203C184.089 171.169 177.327 158.35 177.327 158.35L159.483 151.843C159.483 151.843 156.934 191.5 156.166 210.677C155.736 221.407 153.905 235.35 151.797 247.945H165.451Z" fill="#263238"/>
<path opacity="0.5" d="M174.707 174.644L171.087 168.807L168.87 173.36C168.87 173.36 166.781 190.845 170.499 210.976C173.973 200.242 176.089 191.511 177.32 184.468L174.707 174.644Z" fill="black"/>
<path d="M176.42 247.945H189.943C191.325 236.301 191.34 223.77 187.214 215.387C193.497 169.298 184.406 158.01 184.406 158.01L165.648 155.041C165.648 155.041 170.74 194.454 173.661 213.418C175.173 223.238 176.031 235.979 176.424 247.941L176.42 247.945Z" fill="#263238"/>
<path d="M162.576 125.466C162.104 127.952 161.49 129.802 160.891 135.818C160.288 140.895 159.85 145.912 159.27 154.299L184.665 158.32C185.287 151.087 187.413 143.063 194.52 127.69C196.167 124.126 194.377 120.168 190.674 119.191C189.686 118.929 188.63 118.675 187.544 118.45C183.317 117.57 179.85 116.881 176.013 116.623C174.74 116.537 173.418 116.492 172.149 116.466C167.57 116.379 163.425 121.015 162.576 125.466Z" fill="#5274B8"/>
<path d="M188.791 105.331C187.199 108.884 184.889 115.485 186.911 118.345C186.911 118.345 183.482 117.26 175.286 120.697C173.616 117.256 175.376 116.522 175.376 116.522C179.745 116.2 180.352 113.149 180.303 110.187L188.791 105.335V105.331Z" fill="#E77B62"/>
<path d="M177.004 120.011C177.959 120.304 178.561 121.086 178.943 121.921C179.55 123.25 181.149 123.789 182.418 123.067C184.492 121.884 187.169 120.195 188.491 118.697C187.686 118.098 186.551 116.986 186.551 116.986C186.551 116.986 178.666 118.821 177.004 120.011Z" fill="white"/>
<path d="M174.73 119.247C174.73 119.247 173.963 119.33 173.075 119.985C172.458 120.442 171.604 119.828 171.859 119.101C172.735 116.623 174.244 116.327 174.244 116.327C174.244 116.327 175.101 115.9 176.516 116.357C174.405 117.076 174.73 119.247 174.73 119.247Z" fill="white"/>
<path opacity="0.2" d="M185.332 107.312L180.311 110.179C180.326 110.88 180.3 111.587 180.191 112.257C181.824 112.284 184.4 110.91 184.954 109.303C185.231 108.502 185.381 107.712 185.336 107.312H185.332Z" fill="black"/>
<path d="M193.142 98.3857C191.068 104.2 190.315 106.697 186.44 109.03C180.614 112.538 173.909 109.135 174.201 102.92C174.463 97.3261 177.81 88.7598 184.298 87.7564C190.689 86.7717 195.216 92.5749 193.142 98.3857Z" fill="#E77B62"/>
<path d="M185.329 98.1721C185.176 98.6663 184.794 99.007 184.472 98.9321C184.15 98.8572 184.015 98.393 184.169 97.8988C184.322 97.4046 184.704 97.0639 185.026 97.1387C185.348 97.2136 185.483 97.6779 185.329 98.1721Z" fill="#263238"/>
<path d="M179.126 96.5139C178.973 97.0081 178.591 97.3488 178.269 97.2739C177.947 97.199 177.812 96.7348 177.966 96.2406C178.119 95.7464 178.501 95.4057 178.823 95.4805C179.145 95.5554 179.28 96.0197 179.126 96.5139Z" fill="#263238"/>
<path d="M178.957 95.5405L177.883 94.9189C177.883 94.9189 178.201 95.9897 178.957 95.5405Z" fill="#263238"/>
<path d="M180.925 97.5356C180.925 97.5356 179.435 99.4713 178.199 100.288C178.66 101.051 179.847 101.029 179.847 101.029L180.925 97.5356Z" fill="#D64D38"/>
<path d="M187.213 95.2858C187.134 95.2745 187.063 95.2333 187.018 95.1622C186.318 94.0764 185.21 94.1101 185.198 94.1101C185.034 94.1139 184.903 93.9903 184.906 93.8256C184.91 93.6608 185.052 93.5223 185.217 93.5148C185.277 93.5148 186.666 93.4699 187.535 94.8178C187.621 94.9525 187.576 95.1397 187.434 95.2333C187.366 95.2783 187.288 95.297 187.213 95.2858Z" fill="#263238"/>
<path d="M177.792 92.3575C177.725 92.3276 177.669 92.2752 177.639 92.204C177.583 92.0543 177.665 91.8858 177.826 91.8221C179.436 91.2119 180.582 91.9607 180.63 91.9944C180.765 92.0842 180.795 92.2677 180.69 92.3987C180.589 92.5298 180.394 92.5635 180.256 92.4736C180.211 92.4436 179.312 91.8746 178.032 92.3613C177.949 92.3912 177.863 92.3875 177.788 92.3613L177.792 92.3575Z" fill="#263238"/>
<path d="M185.157 97.1986L184.082 96.5771C184.082 96.5771 184.4 97.6479 185.157 97.1986Z" fill="#263238"/>
<path d="M162.062 144.561H156.004C155.431 144.561 154.87 144.096 154.746 143.527L151.938 130.416C151.814 129.843 152.181 129.382 152.75 129.382H158.808C159.381 129.382 159.943 129.847 160.066 130.416L162.874 143.527C162.998 144.1 162.631 144.561 162.062 144.561Z" fill="#263238"/>
<path d="M161.359 144.561H155.301C154.728 144.561 154.166 144.096 154.043 143.527L151.235 130.416C151.111 129.843 151.478 129.382 152.047 129.382H158.105C158.678 129.382 159.24 129.847 159.363 130.416L162.171 143.527C162.295 144.1 161.928 144.561 161.359 144.561Z" fill="#263238"/>
<path opacity="0.2" d="M161.359 144.561H155.301C154.728 144.561 154.166 144.096 154.043 143.527L151.235 130.416C151.111 129.843 151.478 129.382 152.047 129.382H158.105C158.678 129.382 159.24 129.847 159.363 130.416L162.171 143.527C162.295 144.1 161.928 144.561 161.359 144.561Z" fill="white"/>
<path d="M159.184 136.833L161.056 136.418C161.76 136.26 162.497 136.455 163.033 136.938L165.538 139.192C166.541 140.094 167.043 141.423 166.889 142.764L166.792 143.591C163.733 144.494 159.761 143.217 159.761 143.217L158.589 142.977C157.544 142.764 156.889 141.82 157.08 140.809L157.522 138.481C157.675 137.676 158.334 137.02 159.177 136.833H159.184Z" fill="#E77B62"/>
<path d="M191.47 123.19C189.328 122.988 187.43 124.56 187.228 126.702L187.217 126.822C187.149 127.518 187.06 128.375 186.966 129.169C186.872 129.974 186.76 130.783 186.64 131.588C186.404 133.201 186.116 134.8 185.798 136.388C185.472 137.971 185.075 139.521 184.641 141.045C184.27 142.266 183.847 143.441 183.387 144.587C182.934 144.617 182.331 144.58 181.702 144.482C180.204 144.254 177.988 143.82 176.352 143.295C174.704 142.782 173.046 142.18 171.383 141.551C169.721 140.94 168.047 140.244 166.419 139.585L166.37 139.566C165.569 139.241 164.618 139.488 164.082 140.214C163.446 141.075 163.629 142.292 164.491 142.928C166.029 144.067 167.583 145.051 169.189 146.043C170.799 147.009 172.454 147.915 174.188 148.747C175.936 149.559 178.284 150.334 180.35 150.87C181.391 151.132 182.488 151.36 183.847 151.371C184.529 151.371 185.292 151.311 186.187 151.031C187.06 150.768 188.13 150.181 188.932 149.226C189.051 149.08 189.175 148.904 189.269 148.732L189.34 148.601C190.253 146.905 191.051 145.175 191.695 143.423C192.335 141.67 192.889 139.907 193.327 138.129C193.776 136.354 194.132 134.568 194.417 132.771C194.551 131.872 194.671 130.974 194.776 130.068C194.888 129.147 194.956 128.289 195.008 127.267C195.109 125.2 193.567 123.392 191.485 123.194L191.47 123.19Z" fill="#E77B62"/>
<path d="M192.638 120.094C196.973 123.156 197.176 127.739 194.836 136.511C191.706 138.08 184.098 136.096 184.098 136.096C184.098 136.096 186.498 122.479 192.638 120.094Z" fill="#5274B8"/>
<path d="M177.06 102.71C177.06 102.71 179.127 102.298 184.87 102.474C184.151 104.185 182.856 105.541 179.909 105.451C178.434 105.548 177.161 104.429 177.064 102.954C177.06 102.871 177.056 102.793 177.06 102.71Z" fill="#263238"/>
<path d="M181.305 104.11C180.175 104.013 179.044 104.275 178.074 104.859C178.61 105.23 179.246 105.432 179.901 105.428C181.028 105.525 182.159 105.263 183.129 104.679C182.597 104.301 181.961 104.099 181.309 104.106L181.305 104.11Z" fill="#D64D38"/>
<path d="M177.32 102.669C177.425 103.103 177.762 103.444 178.196 103.552C179.904 103.597 181.607 103.5 183.3 103.26C183.846 103.223 184.337 102.92 184.614 102.444C182.18 102.332 179.743 102.407 177.324 102.669H177.32Z" fill="white"/>
<path d="M184.347 87.3671C183.973 87.4233 183.61 87.5094 183.258 87.6142V87.9474C184.07 87.9362 184.973 88.041 185.976 88.348C190.821 89.8269 191.603 92.5264 189.956 96.5812C189.177 98.5018 188.758 102.572 189.656 103.335C189.889 103.534 190.589 103.504 191.498 103.354C192.097 101.973 192.674 100.325 193.408 98.2622C195.535 92.3055 190.896 86.3599 184.347 87.3671Z" fill="#263238"/>
<path d="M193.693 103.699C192.675 104.74 191.338 105.211 190.223 105.208C188.545 105.196 188.276 103.47 189.219 102.029C190.069 100.734 191.963 99.176 193.42 99.8799C194.854 100.573 194.858 102.512 193.693 103.703V103.699Z" fill="#E77B62"/>
<g opacity="0.9">
<path d="M183.357 133.467C171.563 132.737 166.239 130.562 164.112 129.33C164.045 129.293 163.985 129.248 163.929 129.199C163.319 128.664 164.086 127.69 164.79 128.095C166.647 129.166 171.765 131.345 183.439 132.067C183.825 132.09 184.124 132.419 184.102 132.805C184.079 133.194 183.742 133.49 183.353 133.467H183.357Z" fill="white"/>
</g>
<g opacity="0.9">
<path d="M182.747 140.132C182.732 140.522 182.399 140.829 182.009 140.81C171.728 140.331 164.637 137.294 162.514 136.272C162.155 136.1 162.016 135.658 162.207 135.306C162.387 134.977 162.791 134.849 163.128 135.01C165.146 135.969 172.151 138.945 182.073 139.413C182.455 139.432 182.758 139.75 182.743 140.132H182.747Z" fill="white"/>
</g>
<g opacity="0.9">
<path d="M170.877 151.817C165.418 150.75 162.606 150.023 161.423 149.686C161.038 149.578 160.828 149.17 160.955 148.788C161.075 148.436 161.446 148.234 161.805 148.335C162.947 148.657 165.744 149.383 171.146 150.439C171.525 150.514 171.775 150.881 171.704 151.259C171.629 151.641 171.259 151.888 170.881 151.813L170.877 151.817Z" fill="white"/>
</g>
<path d="M183.34 89.7296C182.891 89.9692 182.28 89.6959 182.063 89.2316C181.846 88.7711 181.97 88.202 182.262 87.7827C182.558 87.3671 182.999 87.0788 183.456 86.8467C183.175 87.266 182.636 87.9774 182.651 88.4828C182.662 88.9883 182.857 89.8756 183.34 89.7296Z" fill="#263238"/>
<path d="M189.196 103.998C189.222 104.26 188.934 104.477 188.676 104.436C188.417 104.395 188.219 104.166 188.14 103.916C188.062 103.665 188.084 103.395 188.11 103.137C188.174 102.542 188.283 101.942 188.537 101.403C188.792 100.864 189.219 100.381 189.773 100.164C189.986 100.359 189.997 100.756 189.877 101.018C189.761 101.28 189.552 101.493 189.391 101.729C188.964 102.351 188.848 103.174 189.088 103.886C189.177 103.893 189.102 103.99 189.192 103.998H189.196Z" fill="#263238"/>
<path d="M110.269 148.428H60.391C56.5608 148.428 53.457 151.532 53.457 155.362V193.274C53.457 197.104 56.5608 200.208 60.391 200.208H98.0522C98.7898 206.27 103.949 210.972 110.209 210.972C110.486 210.972 110.759 210.95 111.029 210.931C109.082 208.363 107.491 204.645 106.45 200.208H110.269C114.099 200.208 117.203 197.104 117.203 193.274V155.362C117.203 151.532 114.099 148.428 110.269 148.428Z" fill="#5274B8"/>
<path opacity="0.4" d="M110.269 148.428H60.391C56.5608 148.428 53.457 151.532 53.457 155.362V193.274C53.457 197.104 56.5608 200.208 60.391 200.208H98.0522C98.7898 206.27 103.949 210.972 110.209 210.972C110.486 210.972 110.759 210.95 111.029 210.931C109.082 208.363 107.491 204.645 106.45 200.208H110.269C114.099 200.208 117.203 197.104 117.203 193.274V155.362C117.203 151.532 114.099 148.428 110.269 148.428Z" fill="white"/>
<path d="M120.254 164.539L124.136 160.949L127.45 167.089C127.45 167.089 123.609 170.028 121.328 168.223L120.254 164.539Z" fill="#F5877E"/>
<path d="M120.257 164.54L117.617 170.156L121.241 173.151L124.409 168.022L120.257 164.54Z" fill="#F5877E"/>
<path d="M127.828 161.78L128.468 164.102C128.783 165.236 128.356 166.501 127.454 167.089L126.027 168.022L122.059 161.065L125.458 160.208C126.488 159.927 127.506 160.605 127.824 161.78H127.828Z" fill="#F5877E"/>
<path d="M120.254 164.539C120.254 164.539 121.635 160.211 121.433 158.886C121.313 158.096 122.118 158.227 122.792 158.459C123.313 158.639 123.665 159.118 123.687 159.668C123.743 161.087 123.706 163.802 122.613 163.978C121.13 164.217 120.254 164.539 120.254 164.539Z" fill="#F5877E"/>
<path d="M124.788 169.043C123.736 167.868 122.313 167.007 120.651 166.662L119.471 166.415C118.801 166.277 118.64 166.434 118.554 166.617L118.217 167.141L117.528 168.19C117.06 168.886 116.6 169.583 116.121 170.264C115.188 171.646 114.215 172.978 113.23 174.248C112.253 175.517 111.227 176.715 110.212 177.681C110.115 177.774 110.018 177.861 109.92 177.95C109.561 177.554 109.205 177.145 108.861 176.715C107.857 175.457 106.899 174.09 105.993 172.671C105.091 171.245 102.163 167.025 101.362 165.505C100.961 164.745 100.572 163.978 100.201 163.206L99.6618 162.05C99.497 161.683 99.3023 161.245 99.19 160.964C99.1676 160.911 99.1376 160.836 99.1151 160.784C97.9283 158.133 94.8207 156.946 92.1737 158.133C89.5229 159.32 88.3361 162.428 89.5229 165.075C89.7775 165.644 89.9759 166.052 90.2043 166.524L90.882 167.868C91.3425 168.755 91.818 169.627 92.3122 170.496C93.3044 172.226 96.4718 176.636 97.6325 178.295C98.7969 179.95 100.066 181.567 101.493 183.113C102.919 184.66 104.495 186.154 106.334 187.494L106.555 187.655C107.607 188.415 108.988 188.703 110.336 188.318C112.103 187.812 113.264 187.019 114.249 186.273C115.226 185.51 116.004 184.731 116.712 183.956C118.124 182.398 119.247 180.822 120.291 179.235C121.325 177.643 122.227 176.022 123.081 174.394C123.493 173.57 123.901 172.75 124.279 171.911L124.837 170.65L125.11 170.013C125.226 169.807 125.263 169.579 124.788 169.047V169.043Z" fill="#263238"/>
<path opacity="0.4" d="M98.8305 166.816L94.9779 169.534L93.8359 172.174C94.0269 172.522 94.2103 172.874 94.405 173.222C95.3972 174.952 96.4792 176.637 97.6399 178.295C98.8043 179.95 100.073 181.567 101.5 183.114C102.163 183.833 102.867 184.54 103.608 185.229C101.747 180.792 98.8342 166.82 98.8342 166.82L98.8305 166.816Z" fill="black"/>
<path d="M64.3935 188.112C64.6967 195.094 63.5885 194.795 63.5623 200.213H97.7004C99.5537 183.675 98.6851 181.129 98.7188 170.155C98.7375 163.974 97.7715 157.669 91.6238 157.025C84.7872 156.31 76.2433 156.385 69.9047 157.167C65.3557 157.729 62.1358 161.915 62.8022 166.445C64.18 175.787 63.4312 181.077 64.3897 188.108L64.3935 188.112Z" fill="#263238"/>
<path opacity="0.9" d="M88.5057 156.767C84.0765 156.471 79.228 156.463 74.8438 156.729C74.9411 158.122 76.0081 161.66 83.762 164.663C83.762 164.663 85.488 160.908 86.9482 162.6C86.9482 162.6 88.1164 160.44 90.6249 164.408C90.6249 164.408 94.3689 160.406 88.5057 156.763V156.767Z" fill="white"/>
<path opacity="0.4" d="M70.0584 166.7C70.8072 173.196 66.6588 184.053 64.4274 189.302C64.4199 188.936 64.4086 188.535 64.3899 188.112C63.7871 183.724 63.8545 180.013 63.6523 175.584L70.0546 166.7H70.0584Z" fill="black"/>
<path d="M78.196 144.314C78.2034 150.173 77.099 153.543 75.7848 156.71C75.6575 157.014 75.7286 157.369 75.972 157.59C78.2072 159.608 81.6292 161.256 86.2681 161.316C90.8545 161.379 90.5925 159.942 89.5067 158.332C89.3532 158.103 89.1435 157.916 88.9039 157.774C85.7664 155.913 85.6541 153.419 86.5302 151.914L78.1922 144.314H78.196Z" fill="#F5877E"/>
<path opacity="0.2" d="M78.1971 144.318L86.5351 151.918C86.0409 152.761 85.8611 153.918 86.3591 155.104C84.7155 155.157 83.0307 154.633 81.563 153.382C79.4139 151.555 78.6838 149.399 78.1484 146.355C78.1859 145.711 78.1971 145.037 78.2008 144.318H78.1971Z" fill="black"/>
<path d="M75.7092 140.39C76.0799 145.988 75.2824 146.886 78.1279 149.724C82.411 153.992 89.3749 154.809 90.3634 149.133C91.2507 144.022 91.7412 134.767 86.2412 132.61C80.8198 130.487 75.3385 134.793 75.7092 140.39Z" fill="#F5877E"/>
<path d="M89.3175 146.418C89.3175 146.418 87.3481 145.793 81.7695 145.557C82.3648 147.564 83.533 149.234 86.3934 149.324C89.2501 149.413 89.3213 146.418 89.3213 146.418H89.3175Z" fill="#263238"/>
<path d="M85.1134 147.71C86.4912 147.751 87.4759 148.167 88.1947 148.8C87.7791 149.129 87.1913 149.346 86.3901 149.32C85.0123 149.275 84.0314 148.875 83.3125 148.231C83.7281 147.901 84.3084 147.684 85.1096 147.71H85.1134Z" fill="#F15959"/>
<path d="M89.0653 146.351C88.8931 146.766 88.7246 147.182 88.163 147.294C86.9986 147.339 84.0333 146.822 83.2396 146.59C82.7304 146.471 82.2998 146.246 82.0078 145.564C86.3022 145.759 88.3914 146.182 89.0653 146.347V146.351Z" fill="white"/>
<path d="M87.1211 141.207C87.1211 141.207 88.2443 143.18 89.3001 144.052C88.7423 144.748 87.6116 144.64 87.6116 144.64L87.1248 141.207H87.1211Z" fill="#F15959"/>
<path d="M81.5948 138.792C81.5499 138.78 81.5049 138.762 81.4675 138.728C81.3514 138.623 81.3439 138.447 81.4488 138.331C82.4934 137.17 83.7776 137.35 83.8337 137.358C83.9872 137.38 84.0921 137.522 84.0659 137.676C84.0396 137.829 83.8974 137.934 83.7439 137.912C83.7027 137.904 82.6993 137.777 81.8644 138.702C81.7932 138.78 81.6884 138.81 81.5948 138.788V138.792Z" fill="#263238"/>
<path d="M90.8976 139.788C90.8078 139.803 90.7141 139.773 90.6468 139.702C89.8043 138.796 88.8047 138.953 88.7635 138.96C88.61 138.986 88.4677 138.885 88.4415 138.732C88.4153 138.578 88.5201 138.436 88.6699 138.406C88.7261 138.399 90.0028 138.181 91.0586 139.316C91.1634 139.428 91.1559 139.608 91.0436 139.713C91.0024 139.75 90.95 139.776 90.8976 139.784V139.788Z" fill="#263238"/>
<path d="M53.9979 189.25C54.0054 189.512 54.0428 189.774 54.114 190.036C54.7916 192.575 55.6715 194.552 56.5738 196.558C57.083 197.674 57.6109 198.76 58.1463 199.834C58.8502 200.074 59.6027 200.213 60.389 200.213H67.9407C67.6898 199.655 67.439 199.093 67.1919 198.539C66.3644 196.712 65.5894 194.874 64.893 193.061C64.2977 191.511 63.7511 189.916 63.4216 188.55C63.4778 188.116 63.5976 187.464 63.7736 186.816C63.9982 185.97 64.2865 185.06 64.6235 184.139C65.2936 182.294 66.0949 180.399 66.9373 178.508C67.7872 176.614 68.7045 174.731 69.6442 172.844C70.5727 170.972 71.5649 169.051 72.5383 167.276L72.572 167.216C72.5908 167.183 72.6095 167.145 72.6282 167.112C73.9498 164.528 72.9315 161.361 70.3481 160.039C67.7647 158.717 64.5973 159.736 63.2756 162.319C62.2198 164.378 61.2726 166.344 60.3291 168.385C59.3968 170.418 58.5132 172.477 57.6708 174.581C56.8284 176.685 56.0346 178.834 55.357 181.114C55.0125 182.252 54.7018 183.428 54.4397 184.697C54.1926 185.982 53.9567 187.307 54.0016 189.097V189.25H53.9979Z" fill="#263238"/>
<path d="M73.1651 144.142C73.7192 145.486 74.7563 146.437 75.7522 146.868C77.2536 147.512 78.0773 146.044 77.7216 144.367C77.4034 142.854 76.239 140.698 74.7039 140.772C73.1913 140.847 72.5324 142.607 73.1651 144.142Z" fill="#F5877E"/>
<path d="M82.9205 140.697C82.8906 141.184 83.1264 141.596 83.4522 141.618C83.7779 141.641 84.055 141.259 84.0774 140.764C84.1036 140.27 83.8715 139.866 83.5533 139.843C83.235 139.825 82.9505 140.203 82.9205 140.697Z" fill="#273238"/>
<path d="M88.4635 141.023C88.4336 141.509 88.6694 141.921 88.9877 141.944C89.3059 141.963 89.5905 141.584 89.6204 141.09C89.6504 140.596 89.4145 140.192 89.0962 140.169C88.778 140.15 88.4897 140.529 88.4635 141.023Z" fill="#273238"/>
<path d="M104.484 50.1733H54.6058C50.7757 50.1733 47.6719 53.2771 47.6719 57.1073V95.0194C47.6719 98.8495 50.7757 101.953 54.6058 101.953H92.2671C93.0047 108.015 98.1639 112.717 104.424 112.717C104.701 112.717 104.974 112.695 105.244 112.676C103.297 110.108 101.706 106.39 100.665 101.953H104.484C108.314 101.953 111.418 98.8495 111.418 95.0194V57.1073C111.418 53.2771 108.314 50.1733 104.484 50.1733Z" fill="#5274B8"/>
<path opacity="0.4" d="M104.484 50.1733H54.6058C50.7757 50.1733 47.6719 53.2771 47.6719 57.1073V95.0194C47.6719 98.8495 50.7757 101.953 54.6058 101.953H92.2671C93.0047 108.015 98.1639 112.717 104.424 112.717C104.701 112.717 104.974 112.695 105.244 112.676C103.297 110.108 101.706 106.39 100.665 101.953H104.484C108.314 101.953 111.418 98.8495 111.418 95.0194V57.1073C111.418 53.2771 108.314 50.1733 104.484 50.1733Z" fill="white"/>
<path d="M92.2727 101.954C91.7748 96.5774 92.3027 89.7221 92.3027 89.7221C92.7332 82.5485 90.5954 74.7946 88.9742 73.4655C86.6417 71.5448 84.4739 69.729 83.6989 72.1514C83.2533 73.5404 83.1186 75.8617 83.1485 78.4488C83.2196 84.7088 84.5151 92.5226 85.1778 96.1282C85.4137 97.4086 85.994 101.954 85.994 101.954H92.2765H92.2727Z" fill="#5274B8"/>
<path d="M87.9147 73.7755C87.7537 72.7272 86.9899 71.8736 85.9641 71.5853C84.2081 71.1135 81.1867 70.3535 78.4273 69.8593C75.1925 69.3351 71.9239 69.0356 68.6479 68.9645C66.5737 68.8783 64.5332 68.942 62.9158 69.0356C62.7248 69.0506 62.5301 69.0805 62.3467 69.1367C60.9127 69.5448 60.074 71.0387 60.4821 72.4726C64.6343 87.3027 65.4954 94.4014 65.7201 101.953H85.994C86.9375 95.0978 88.7945 89.478 88.963 85.4494C89.2026 79.5563 88.2067 75.509 87.9147 73.7755Z" fill="#5274B8"/>
<path opacity="0.8" d="M87.9147 73.7755C87.7537 72.7272 86.9899 71.8736 85.9641 71.5853C84.2081 71.1135 81.1867 70.3535 78.4273 69.8593C75.1925 69.3351 71.9239 69.0356 68.6479 68.9645C66.5737 68.8783 64.5332 68.942 62.9158 69.0356C62.7248 69.0506 62.5301 69.0805 62.3467 69.1367C60.9127 69.5448 60.074 71.0387 60.4821 72.4726C64.6343 87.3027 65.4954 94.4014 65.7201 101.953H85.994C86.9375 95.0978 88.7945 89.478 88.963 85.4494C89.2026 79.5563 88.2067 75.509 87.9147 73.7755Z" fill="white"/>
<path d="M79.5838 66.4377C78.2546 68.2385 77.2737 70.3726 79.3666 72.7501C79.8084 73.2518 80.1042 73.8845 80.1192 74.551C80.1416 75.6218 79.5201 76.6626 76.0307 74.6071C70.9762 71.6306 71.3993 68.2685 71.3993 68.2685C74.0576 67.4635 75.6488 61.8812 76.2628 58.6875L79.5875 66.4377H79.5838Z" fill="#FAB176"/>
<path opacity="0.2" d="M76.5416 63.4797C76.1522 64.8388 77.5937 67.0066 78.6832 67.8677C78.934 67.3623 79.2335 66.8831 79.5743 66.4338L77.6086 61.8511C77.1444 62.3153 76.7812 62.8694 76.5378 63.4797H76.5416Z" fill="black"/>
<path d="M89.8538 49.642C91.6285 51.896 87.6224 58.6876 87.1918 57.2724C86.4917 54.9548 85.4696 50.2748 85.4845 48.3354C85.507 45.2952 88.0792 47.3881 89.8576 49.6458L89.8538 49.642Z" fill="#263238"/>
<path d="M75.1012 50.3461C77.0855 46.9652 81.4361 45.8345 84.8169 47.8188C89.5831 50.5819 89.2237 58.3134 87.4714 62.78C85.5545 67.7521 79.0698 68.3848 75.7114 63.8695C73.4575 60.8556 73.7421 58.6653 74.1389 53.4761C74.2101 52.3716 74.5396 51.3008 75.1012 50.3461Z" fill="#FAB176"/>
<path d="M81.4383 56.104C81.4008 56.527 81.5918 56.8902 81.8651 56.9202C82.1384 56.9501 82.4005 56.6244 82.4454 56.2013C82.4904 55.782 82.2919 55.4151 82.0186 55.3851C81.7453 55.3551 81.4982 55.7033 81.4383 56.104Z" fill="#263238"/>
<path d="M81.8828 55.4413L82.9237 55.2466C82.9237 55.2466 82.3358 55.9617 81.8828 55.4413Z" fill="#263238"/>
<path d="M86.7469 57.2876C86.7094 57.7106 86.9004 58.0738 87.1737 58.1038C87.447 58.1337 87.7091 57.808 87.754 57.3849C87.7989 56.9656 87.6005 56.5986 87.3272 56.5687C87.0539 56.5387 86.8068 56.8869 86.7469 57.2876Z" fill="#263238"/>
<path d="M87.1953 56.6249L88.2362 56.4302C88.2362 56.4302 87.6483 57.1453 87.1953 56.6249Z" fill="#263238"/>
<path d="M84.7383 60.4885C85.2362 60.6907 85.7941 60.6645 86.2733 60.4174C85.7679 59.5114 85.3897 58.5417 85.1539 57.5308L84.742 60.4885H84.7383Z" fill="#F6893F"/>
<path d="M80.7578 60.3088C80.7279 60.2452 80.7578 60.1703 80.8177 60.1441C80.8814 60.1141 80.9563 60.1441 80.9862 60.204C81.5104 61.1362 82.4501 61.7578 83.5097 61.8776C83.5734 61.8925 83.6183 61.9524 83.6108 62.0161C83.6108 62.0161 83.6108 62.0198 83.6108 62.0236C83.5996 62.0872 83.5397 62.1322 83.476 62.1209C83.2738 62.0985 83.0754 62.0573 82.8845 62.0011C81.9784 61.7428 81.2109 61.1325 80.7578 60.3088Z" fill="#263238"/>
<path d="M81.275 53.375C81.1926 53.2627 81.2188 53.1092 81.3274 53.0306C82.4581 52.1769 84.0643 52.6674 84.1317 52.6936C84.2627 52.7348 84.3338 52.8733 84.2927 53.0044C84.2515 53.1354 84.1129 53.2066 83.9819 53.1654C83.9707 53.1616 82.5741 52.7049 81.6381 53.4162C81.5558 53.4836 81.436 53.4836 81.3498 53.4237L81.2787 53.375H81.275Z" fill="#263238"/>
<path d="M88.902 54.9921C88.5575 54.4604 87.9772 54.1272 87.3444 54.101C87.2059 54.101 87.0936 53.9962 87.0898 53.8576C87.0898 53.7191 87.1947 53.6068 87.3332 53.603C88.1344 53.6292 88.872 54.0411 89.3138 54.7075C89.3887 54.8198 89.3587 54.9733 89.2464 55.0482C89.1753 55.1006 89.0817 55.1081 89.0031 55.0707C88.9619 55.052 88.9282 55.022 88.8982 54.9883L88.902 54.9921Z" fill="#263238"/>
<path d="M82.5282 49.3087C80.967 49.5895 79.5555 50.6116 78.8029 52.0082C78.4472 52.6709 76.1484 54.1198 75.759 54.7638C74.5197 56.8118 75.8676 62.6562 75.2873 63.098C74.7069 63.5398 74.9129 61.8063 74.3587 61.4768C73.8046 61.1474 73.1607 60.9489 72.6739 60.5259C72.0037 59.9418 69.5477 53.5994 72.5429 49.758C74.078 47.7886 76.2195 46.2424 78.6794 45.8081C81.1392 45.3737 83.7638 45.9728 85.7968 47.4255C86.452 47.8935 87.5902 49.1814 85.7668 49.7543C85.2801 49.9078 85.2576 49.5146 84.7447 49.3873C84.0259 49.2076 83.2621 49.1739 82.532 49.305L82.5282 49.3087Z" fill="#263238"/>
<path d="M70.6042 54.7674C72.3302 53.0864 74.4905 53.0864 76.3962 53.0864C77.4633 53.0864 78.3843 53.0864 79.0769 52.7831C80.9976 51.9444 82.177 49.2113 82.3904 48.309C82.5963 47.4291 83.6185 46.8188 83.9929 46.8001C84.2662 46.7777 85.1648 46.8787 85.5953 47.5077C85.936 48.0057 85.9023 48.7208 85.4905 49.6381L85.7563 49.7579C86.2131 48.7433 86.2393 47.9308 85.8349 47.343C85.3257 46.6017 84.3223 46.4969 83.9741 46.5081C83.465 46.538 82.3417 47.2344 82.1021 48.2453C81.9074 49.0727 80.7543 51.7348 78.9571 52.5173C78.3207 52.7943 77.4258 52.7943 76.3925 52.7943C74.5242 52.7943 72.2104 52.7943 70.3945 54.5578L70.6004 54.7674H70.6042Z" fill="#263238"/>
<path opacity="0.1" d="M70.6042 54.7674C72.3302 53.0864 74.4905 53.0864 76.3962 53.0864C77.4633 53.0864 78.3843 53.0864 79.0769 52.7831C80.9976 51.9444 82.177 49.2113 82.3904 48.309C82.5963 47.4291 83.6185 46.8188 83.9929 46.8001C84.2662 46.7777 85.1648 46.8787 85.5953 47.5077C85.936 48.0057 85.9023 48.7208 85.4905 49.6381L85.7563 49.7579C86.2131 48.7433 86.2393 47.9308 85.8349 47.343C85.3257 46.6017 84.3223 46.4969 83.9741 46.5081C83.465 46.538 82.3417 47.2344 82.1021 48.2453C81.9074 49.0727 80.7543 51.7348 78.9571 52.5173C78.3207 52.7943 77.4258 52.7943 76.3925 52.7943C74.5242 52.7943 72.2104 52.7943 70.3945 54.5578L70.6004 54.7674H70.6042Z" fill="white"/>
<path d="M72.0889 56.7297C72.2125 55.7937 73.0699 55.1385 74.0059 55.262C75.2976 55.4567 75.8816 57.1939 75.8816 58.3321C75.8629 59.5901 74.9456 60.5187 73.8112 59.811C72.9613 59.2681 72.3622 58.4145 72.1413 57.4298C72.074 57.2014 72.059 56.9656 72.0889 56.7297Z" fill="#FAB176"/>
<path d="M74.3808 75.2251C74.1038 78.8081 70.7903 92.354 63.6168 92.7322C62.501 92.7846 61.3591 92.3615 60.4867 91.6239C60.4793 91.6239 60.4643 91.609 60.4568 91.6015C54.6685 88.1195 59.2175 71.219 60.3782 70.2343C62.3213 68.6168 65.7172 68.9613 66.7805 72.1437C66.934 71.6121 67.05 71.0655 67.1436 70.5188C67.4432 68.6842 68.4391 64.431 70.2737 64.124C71.3819 63.9331 73.6545 63.832 74.321 64.7418C74.9836 65.6441 74.8376 69.302 74.3808 75.2288V75.2251Z" fill="#5274B8"/>
<g opacity="0.2">
<path d="M74.0039 55.2617L74.0376 55.58L74.3671 58.6838V62.6936L74.9137 60.3124C75.056 59.6909 75.0859 59.0507 75.0073 58.4179L74.6254 55.4377L74.0076 55.2617H74.0039Z" fill="black"/>
</g>
<path d="M70.4041 64.8609L69.543 58.6159L74.7434 58.5747C74.7434 58.5747 74.3129 63.2622 73.0137 64.8572H70.4041V64.8609Z" fill="#FAB176"/>
<path d="M70.4565 54.3516L74.3091 55.0292L74.7247 58.5599L69.543 58.616L70.4565 54.3516Z" fill="#FAB176"/>
<path opacity="0.2" d="M65.2226 77.8384C65.2226 77.8384 62.1076 85.0419 62.0102 82.1889C61.9054 79.0889 65.2226 77.8384 65.2226 77.8384Z" fill="black"/>
<path d="M257.357 119.951H238.079C236.244 119.951 234.758 121.438 234.758 123.272V135.691C234.758 137.526 236.244 139.012 238.079 139.012H243.624L246.099 142.251C246.915 143.318 248.521 143.318 249.341 142.251L251.816 139.012H257.361C259.195 139.012 260.682 137.526 260.682 135.691V123.272C260.682 121.438 259.195 119.951 257.361 119.951H257.357Z" fill="#5274B8"/>
<path opacity="0.7" d="M257.357 119.951H238.079C236.244 119.951 234.758 121.438 234.758 123.272V135.691C234.758 137.526 236.244 139.012 238.079 139.012H243.624L246.099 142.251C246.915 143.318 248.521 143.318 249.341 142.251L251.816 139.012H257.361C259.195 139.012 260.682 137.526 260.682 135.691V123.272C260.682 121.438 259.195 119.951 257.361 119.951H257.357Z" fill="white"/>
<path d="M256.244 128.484L250.074 124.717V126.975H247.247C243.473 126.975 240.41 130.034 240.41 133.812C240.41 134.332 240.474 134.834 240.582 135.32C241.271 132.273 243.989 129.993 247.247 129.993H250.074V132.25L256.244 128.484Z" fill="#5274B8"/>
<path d="M121.714 43.9697H136.495C137.903 43.9697 139.041 45.1079 139.041 46.5157V56.0367C139.041 57.4445 137.903 58.5827 136.495 58.5827H132.246L130.348 61.065C129.722 61.8849 128.491 61.8849 127.862 61.065L125.963 58.5827H121.714C120.306 58.5827 119.168 57.4445 119.168 56.0367V46.5157C119.168 45.1079 120.306 43.9697 121.714 43.9697Z" fill="#5274B8"/>
<path opacity="0.7" d="M121.714 43.9697H136.495C137.903 43.9697 139.041 45.1079 139.041 46.5157V56.0367C139.041 57.4445 137.903 58.5827 136.495 58.5827H132.246L130.348 61.065C129.722 61.8849 128.491 61.8849 127.862 61.065L125.963 58.5827H121.714C120.306 58.5827 119.168 57.4445 119.168 56.0367V46.5157C119.168 45.1079 120.306 43.9697 121.714 43.9697Z" fill="white"/>
<path d="M122.566 50.5107L127.299 47.624V49.3538H129.467C132.361 49.3538 134.708 51.7013 134.708 54.5954C134.708 54.9923 134.66 55.3779 134.577 55.7523C134.049 53.416 131.964 51.6676 129.467 51.6676H127.299V53.3973L122.566 50.5107Z" fill="#5274B8"/>
</svg>
