<svg width="33" height="23" viewBox="0 0 33 23" fill="none" xmlns="http://www.w3.org/2000/svg">
<path d="M0.370785 10.5143L8.61049 0.657143C8.94007 0.164286 9.43446 0 9.92884 0H28.0562C30.8577 0 33 2.13571 33 4.92857V18.0714C33 20.8643 30.8577 23 28.0562 23H9.92884C9.43446 23 8.94007 22.8357 8.61049 22.3429L0.370785 12.4857C-0.123596 11.9929 -0.123596 11.0071 0.370785 10.5143ZM15.367 15.9357C16.0262 16.5929 17.015 16.5929 17.6742 15.9357L19.8165 13.8L21.9588 15.9357C22.618 16.5929 23.6067 16.5929 24.2659 15.9357C24.9251 15.2786 24.9251 14.2929 24.2659 13.6357L22.1236 11.5L24.2659 9.36429C24.9251 8.70714 24.9251 7.72143 24.2659 7.06429C23.6067 6.40714 22.618 6.40714 21.9588 7.06429L19.8165 9.2L17.6742 7.06429C17.015 6.40714 16.0262 6.40714 15.367 7.06429C14.7079 7.72143 14.7079 8.70714 15.367 9.36429L17.5094 11.5L15.367 13.6357C14.7079 14.2929 14.7079 15.2786 15.367 15.9357Z" fill="#424242"/>
</svg>
