<svg width="17" height="20" viewBox="0 0 17 20" fill="none" xmlns="http://www.w3.org/2000/svg">
<path d="M8.554 19.312C7.02867 19.312 5.694 19.0867 4.55 18.636C3.406 18.168 2.51333 17.518 1.872 16.686C1.23067 15.8367 0.91 14.8487 0.91 13.722C0.91 12.5953 1.222 11.642 1.846 10.862C2.48733 10.0647 3.38 9.46667 4.524 9.068C5.668 8.652 7.01133 8.444 8.554 8.444C10.114 8.444 11.466 8.652 12.61 9.068C13.7713 9.46667 14.664 10.0647 15.288 10.862C15.9293 11.642 16.25 12.5953 16.25 13.722C16.25 14.8487 15.9293 15.8367 15.288 16.686C14.6467 17.518 13.7453 18.168 12.584 18.636C11.44 19.0867 10.0967 19.312 8.554 19.312ZM8.554 16.218C9.61133 16.218 10.4433 15.984 11.05 15.516C11.674 15.048 11.986 14.4067 11.986 13.592C11.986 12.7773 11.674 12.1447 11.05 11.694C10.4433 11.226 9.61133 10.992 8.554 10.992C7.514 10.992 6.69067 11.226 6.084 11.694C5.47733 12.1447 5.174 12.7773 5.174 13.592C5.174 14.4067 5.47733 15.048 6.084 15.516C6.69067 15.984 7.514 16.218 8.554 16.218ZM8.554 10.576C7.15 10.576 5.91933 10.3853 4.862 10.004C3.822 9.62267 3.00733 9.068 2.418 8.34C1.846 7.59467 1.56 6.71067 1.56 5.688C1.56 4.61333 1.85467 3.69467 2.444 2.932C3.03333 2.152 3.85667 1.554 4.914 1.138C5.97133 0.704666 7.18467 0.488 8.554 0.488C9.958 0.488 11.18 0.704666 12.22 1.138C13.2773 1.554 14.1007 2.152 14.69 2.932C15.2967 3.69467 15.6 4.61333 15.6 5.688C15.6 6.71067 15.3053 7.59467 14.716 8.34C14.144 9.068 13.3293 9.62267 12.272 10.004C11.2147 10.3853 9.97533 10.576 8.554 10.576ZM8.554 8.106C9.438 8.106 10.1313 7.90667 10.634 7.508C11.154 7.10933 11.414 6.56333 11.414 5.87C11.414 5.142 11.1453 4.57867 10.608 4.18C10.088 3.78133 9.40333 3.582 8.554 3.582C7.722 3.582 7.046 3.78133 6.526 4.18C6.006 4.57867 5.746 5.142 5.746 5.87C5.746 6.56333 5.99733 7.10933 6.5 7.508C7.00267 7.90667 7.68733 8.106 8.554 8.106Z" fill="#424242"/>
</svg>
