<svg width="15" height="20" viewBox="0 0 15 20" fill="none" xmlns="http://www.w3.org/2000/svg">
<path d="M7.202 19.312C5.93667 19.312 4.68 19.1473 3.432 18.818C2.20133 18.4713 1.144 17.986 0.26 17.362L1.924 14.138C2.61733 14.6407 3.41467 15.0393 4.316 15.334C5.23467 15.6287 6.162 15.776 7.098 15.776C8.15533 15.776 8.98733 15.568 9.594 15.152C10.2007 14.736 10.504 14.1553 10.504 13.41C10.504 12.942 10.3827 12.526 10.14 12.162C9.89733 11.798 9.464 11.5207 8.84 11.33C8.23333 11.1393 7.37533 11.044 6.266 11.044H1.612L2.548 0.799999H13.65V4.18H4.056L6.24 2.256L5.59 9.562L3.406 7.638H7.254C9.05667 7.638 10.504 7.88933 11.596 8.392C12.7053 8.87733 13.5113 9.54467 14.014 10.394C14.5167 11.2433 14.768 12.2053 14.768 13.28C14.768 14.3547 14.4993 15.3513 13.962 16.27C13.4247 17.1713 12.5927 17.908 11.466 18.48C10.3567 19.0347 8.93533 19.312 7.202 19.312Z" fill="#424242"/>
</svg>
