<svg width="41" height="41" viewBox="0 0 41 41" fill="none" xmlns="http://www.w3.org/2000/svg">
<rect width="41" height="41" rx="20.5" transform="matrix(-1 0 0 1 41 0)" fill="white"/>
<rect x="-0.5" y="0.5" width="40" height="40" rx="20" transform="matrix(-1 0 0 1 40 0)" stroke="#09376E" stroke-opacity="0.4"/>
<path fill-rule="evenodd" clip-rule="evenodd" d="M24.6337 11.2922C24.4361 11.1046 24.1741 11 23.9017 11C23.6292 11 23.3672 11.1046 23.1697 11.2922L14.6067 19.5562C14.415 19.7384 14.2624 19.9576 14.1581 20.2006C14.0538 20.4436 14 20.7053 14 20.9697C14 21.2341 14.0538 21.4958 14.1581 21.7388C14.2624 21.9818 14.415 22.201 14.6067 22.3832L23.2317 30.7082C23.6317 31.0932 24.2797 31.0982 24.6857 30.7182C24.784 30.6277 24.8626 30.5179 24.9167 30.3957C24.9708 30.2735 24.9992 30.1415 25.0001 30.0079C25.0011 29.8742 24.9745 29.7418 24.9222 29.6189C24.8698 29.496 24.7927 29.3851 24.6957 29.2932L16.8027 21.6762C16.7068 21.5851 16.6304 21.4755 16.5782 21.3539C16.526 21.2324 16.4991 21.1015 16.4991 20.9692C16.4991 20.8369 16.526 20.706 16.5782 20.5845C16.6304 20.4629 16.7068 20.3533 16.8027 20.2622L24.6327 12.7052C24.7286 12.6142 24.8049 12.5046 24.8571 12.3832C24.9093 12.2617 24.9362 12.1309 24.9362 11.9987C24.9362 11.8665 24.9093 11.7357 24.8571 11.6142C24.8049 11.4928 24.7296 11.3832 24.6337 11.2922Z" fill="#09376E"/>
</svg>
