<svg width="16" height="20" viewBox="0 0 16 20" fill="none" xmlns="http://www.w3.org/2000/svg">
<path d="M7.41 0.488C9.09133 0.488 10.5387 0.834666 11.752 1.528C12.9653 2.22133 13.9013 3.23533 14.56 4.57C15.2187 5.88733 15.548 7.534 15.548 9.51C15.548 11.6073 15.1493 13.384 14.352 14.84C13.572 16.296 12.4887 17.4053 11.102 18.168C9.71533 18.9307 8.10333 19.312 6.266 19.312C5.31267 19.312 4.394 19.208 3.51 19C2.626 18.792 1.86333 18.48 1.222 18.064L2.782 14.97C3.28467 15.3167 3.822 15.5593 4.394 15.698C4.966 15.8193 5.564 15.88 6.188 15.88C7.748 15.88 8.98733 15.4033 9.906 14.45C10.842 13.4967 11.31 12.084 11.31 10.212C11.31 9.9 11.3013 9.55333 11.284 9.172C11.2667 8.79067 11.2233 8.40933 11.154 8.028L12.298 9.12C12.0033 9.796 11.5873 10.368 11.05 10.836C10.5127 11.2867 9.88867 11.6333 9.178 11.876C8.46733 12.1013 7.67 12.214 6.786 12.214C5.62467 12.214 4.56733 11.98 3.614 11.512C2.678 11.044 1.924 10.3853 1.352 9.536C0.797333 8.68667 0.52 7.69 0.52 6.546C0.52 5.298 0.823333 4.22333 1.43 3.322C2.054 2.42067 2.886 1.72733 3.926 1.242C4.98333 0.739333 6.14467 0.488 7.41 0.488ZM7.67 3.634C7.06333 3.634 6.53467 3.74667 6.084 3.972C5.63333 4.18 5.278 4.492 5.018 4.908C4.758 5.30667 4.628 5.78333 4.628 6.338C4.628 7.17 4.90533 7.83733 5.46 8.34C6.032 8.82533 6.786 9.068 7.722 9.068C8.32867 9.068 8.866 8.95533 9.334 8.73C9.81933 8.48733 10.192 8.158 10.452 7.742C10.712 7.326 10.842 6.858 10.842 6.338C10.842 5.818 10.712 5.35867 10.452 4.96C10.2093 4.544 9.854 4.22333 9.386 3.998C8.918 3.75533 8.346 3.634 7.67 3.634Z" fill="#424242"/>
</svg>
