<svg width="16" height="20" viewBox="0 0 16 20" fill="none" xmlns="http://www.w3.org/2000/svg">
<path d="M8.152 19.312C6.488 19.312 5.04067 18.9653 3.81 18.272C2.59667 17.5787 1.66067 16.5647 1.002 15.23C0.343333 13.8953 0.014 12.2487 0.014 10.29C0.014 8.19267 0.404 6.416 1.184 4.96C1.98133 3.504 3.07333 2.39467 4.46 1.632C5.864 0.869333 7.476 0.488 9.296 0.488C10.2667 0.488 11.194 0.591999 12.078 0.799999C12.962 1.008 13.7247 1.32 14.366 1.736L12.806 4.83C12.3033 4.48333 11.766 4.24933 11.194 4.128C10.622 3.98933 10.024 3.92 9.4 3.92C7.82267 3.92 6.57467 4.39667 5.656 5.35C4.73733 6.30333 4.278 7.716 4.278 9.588C4.278 9.9 4.278 10.2467 4.278 10.628C4.29533 11.0093 4.34733 11.3907 4.434 11.772L3.264 10.68C3.59333 10.004 4.018 9.44067 4.538 8.99C5.058 8.522 5.67333 8.17533 6.384 7.95C7.112 7.70733 7.90933 7.586 8.776 7.586C9.95467 7.586 11.012 7.82 11.948 8.288C12.884 8.756 13.6293 9.41467 14.184 10.264C14.756 11.1133 15.042 12.11 15.042 13.254C15.042 14.4847 14.73 15.5593 14.106 16.478C13.4993 17.3793 12.676 18.0813 11.636 18.584C10.6133 19.0693 9.452 19.312 8.152 19.312ZM7.918 16.166C8.50733 16.166 9.02733 16.062 9.478 15.854C9.946 15.6287 10.31 15.308 10.57 14.892C10.83 14.476 10.96 13.9993 10.96 13.462C10.96 12.63 10.674 11.9713 10.102 11.486C9.54733 10.9833 8.802 10.732 7.866 10.732C7.242 10.732 6.696 10.8533 6.228 11.096C5.76 11.3213 5.38733 11.642 5.11 12.058C4.85 12.4567 4.72 12.9247 4.72 13.462C4.72 13.982 4.85 14.45 5.11 14.866C5.37 15.2647 5.734 15.5853 6.202 15.828C6.67 16.0533 7.242 16.166 7.918 16.166Z" fill="#424242"/>
</svg>
