<svg width="16" height="20" viewBox="0 0 16 20" fill="none" xmlns="http://www.w3.org/2000/svg">
<path d="M7.916 19.312C6.65067 19.312 5.394 19.1473 4.146 18.818C2.898 18.4713 1.84067 17.986 0.974 17.362L2.612 14.138C3.30533 14.6407 4.11133 15.0393 5.03 15.334C5.94867 15.6287 6.876 15.776 7.812 15.776C8.86933 15.776 9.70133 15.568 10.308 15.152C10.9147 14.736 11.218 14.164 11.218 13.436C11.218 12.7427 10.9493 12.1967 10.412 11.798C9.87467 11.3993 9.008 11.2 7.812 11.2H5.888V8.418L10.958 2.672L11.426 4.18H1.884V0.799999H14.624V3.53L9.58 9.276L7.448 8.054H8.67C10.906 8.054 12.596 8.55667 13.74 9.562C14.884 10.5673 15.456 11.8587 15.456 13.436C15.456 14.4587 15.1873 15.4207 14.65 16.322C14.1127 17.206 13.2893 17.9253 12.18 18.48C11.0707 19.0347 9.64933 19.312 7.916 19.312Z" fill="#424242"/>
</svg>
