<svg width="15" height="19" viewBox="0 0 15 19" fill="none" xmlns="http://www.w3.org/2000/svg">
<path d="M0.858 19V16.27L7.878 9.64C8.43267 9.13733 8.84 8.68667 9.1 8.288C9.36 7.88933 9.53333 7.52533 9.62 7.196C9.724 6.86667 9.776 6.56333 9.776 6.286C9.776 5.558 9.52467 5.00333 9.022 4.622C8.53667 4.22333 7.81733 4.024 6.864 4.024C6.10133 4.024 5.39067 4.17133 4.732 4.466C4.09067 4.76067 3.54467 5.22 3.094 5.844L0.026 3.868C0.719333 2.828 1.69 2.00467 2.938 1.398C4.186 0.791333 5.62467 0.488 7.254 0.488C8.606 0.488 9.78467 0.713333 10.79 1.164C11.8127 1.59733 12.6013 2.21267 13.156 3.01C13.728 3.80733 14.014 4.76067 14.014 5.87C14.014 6.45933 13.936 7.04867 13.78 7.638C13.6413 8.21 13.3467 8.81667 12.896 9.458C12.4627 10.0993 11.8213 10.8187 10.972 11.616L5.148 17.102L4.342 15.568H14.612V19H0.858Z" fill="#424242"/>
</svg>
