<svg width="16" height="20" viewBox="0 0 16 20" fill="none" xmlns="http://www.w3.org/2000/svg">
<path d="M7.814 19.312C6.32333 19.312 4.98867 18.948 3.81 18.22C2.63133 17.4747 1.704 16.4 1.028 14.996C0.352 13.592 0.014 11.8933 0.014 9.9C0.014 7.90667 0.352 6.208 1.028 4.804C1.704 3.4 2.63133 2.334 3.81 1.606C4.98867 0.860666 6.32333 0.488 7.814 0.488C9.322 0.488 10.6567 0.860666 11.818 1.606C12.9967 2.334 13.924 3.4 14.6 4.804C15.276 6.208 15.614 7.90667 15.614 9.9C15.614 11.8933 15.276 13.592 14.6 14.996C13.924 16.4 12.9967 17.4747 11.818 18.22C10.6567 18.948 9.322 19.312 7.814 19.312ZM7.814 15.75C8.52467 15.75 9.14 15.5507 9.66 15.152C10.1973 14.7533 10.6133 14.1207 10.908 13.254C11.22 12.3873 11.376 11.2693 11.376 9.9C11.376 8.53067 11.22 7.41267 10.908 6.546C10.6133 5.67933 10.1973 5.04667 9.66 4.648C9.14 4.24933 8.52467 4.05 7.814 4.05C7.12067 4.05 6.50533 4.24933 5.968 4.648C5.448 5.04667 5.032 5.67933 4.72 6.546C4.42533 7.41267 4.278 8.53067 4.278 9.9C4.278 11.2693 4.42533 12.3873 4.72 13.254C5.032 14.1207 5.448 14.7533 5.968 15.152C6.50533 15.5507 7.12067 15.75 7.814 15.75Z" fill="#424242"/>
</svg>
