<svg width="168" height="15" viewBox="0 0 168 15" fill="none" xmlns="http://www.w3.org/2000/svg">
<path d="M0.97032 14V1.4H6.47832C7.84632 1.4 9.04632 1.664 10.0783 2.192C11.1103 2.72 11.9143 3.452 12.4903 4.388C13.0663 5.324 13.3543 6.428 13.3543 7.7C13.3543 8.96 13.0663 10.064 12.4903 11.012C11.9143 11.948 11.1103 12.68 10.0783 13.208C9.04632 13.736 7.84632 14 6.47832 14H0.97032ZM3.31032 12.02H6.37032C7.31832 12.02 8.13432 11.84 8.81832 11.48C9.51432 11.12 10.0483 10.616 10.4203 9.968C10.8043 9.32 10.9963 8.564 10.9963 7.7C10.9963 6.824 10.8043 6.068 10.4203 5.432C10.0483 4.784 9.51432 4.28 8.81832 3.92C8.13432 3.56 7.31832 3.38 6.37032 3.38H3.31032V12.02ZM21.2141 14V12.056L21.0881 11.642V8.24C21.0881 7.58 20.8901 7.07 20.4941 6.71C20.0981 6.338 19.4981 6.152 18.6941 6.152C18.1541 6.152 17.6201 6.236 17.0921 6.404C16.5761 6.572 16.1381 6.806 15.7781 7.106L14.8961 5.468C15.4121 5.072 16.0241 4.778 16.7321 4.586C17.4521 4.382 18.1961 4.28 18.9641 4.28C20.3561 4.28 21.4301 4.616 22.1861 5.288C22.9541 5.948 23.3381 6.974 23.3381 8.366V14H21.2141ZM18.1901 14.126C17.4701 14.126 16.8401 14.006 16.3001 13.766C15.7601 13.514 15.3401 13.172 15.0401 12.74C14.7521 12.296 14.6081 11.798 14.6081 11.246C14.6081 10.706 14.7341 10.22 14.9861 9.788C15.2501 9.356 15.6761 9.014 16.2641 8.762C16.8521 8.51 17.6321 8.384 18.6041 8.384H21.3941V9.878H18.7661C17.9981 9.878 17.4821 10.004 17.2181 10.256C16.9541 10.496 16.8221 10.796 16.8221 11.156C16.8221 11.564 16.9841 11.888 17.3081 12.128C17.6321 12.368 18.0821 12.488 18.6581 12.488C19.2101 12.488 19.7021 12.362 20.1341 12.11C20.5781 11.858 20.8961 11.486 21.0881 10.994L21.4661 12.344C21.2501 12.908 20.8601 13.346 20.2961 13.658C19.7441 13.97 19.0421 14.126 18.1901 14.126ZM28.8623 14.126C28.0583 14.126 27.2843 14.024 26.5403 13.82C25.8083 13.604 25.2263 13.346 24.7943 13.046L25.6583 11.336C26.0903 11.612 26.6063 11.84 27.2063 12.02C27.8063 12.2 28.4063 12.29 29.0063 12.29C29.7143 12.29 30.2243 12.194 30.5363 12.002C30.8603 11.81 31.0223 11.552 31.0223 11.228C31.0223 10.964 30.9143 10.766 30.6983 10.634C30.4823 10.49 30.2003 10.382 29.8523 10.31C29.5043 10.238 29.1143 10.172 28.6823 10.112C28.2623 10.052 27.8363 9.974 27.4043 9.878C26.9843 9.77 26.6003 9.62 26.2523 9.428C25.9043 9.224 25.6223 8.954 25.4063 8.618C25.1903 8.282 25.0823 7.838 25.0823 7.286C25.0823 6.674 25.2563 6.146 25.6043 5.702C25.9523 5.246 26.4383 4.898 27.0623 4.658C27.6983 4.406 28.4483 4.28 29.3123 4.28C29.9603 4.28 30.6143 4.352 31.2743 4.496C31.9343 4.64 32.4803 4.844 32.9123 5.108L32.0483 6.818C31.5923 6.542 31.1303 6.356 30.6623 6.26C30.2063 6.152 29.7503 6.098 29.2943 6.098C28.6103 6.098 28.1003 6.2 27.7643 6.404C27.4403 6.608 27.2783 6.866 27.2783 7.178C27.2783 7.466 27.3863 7.682 27.6023 7.826C27.8183 7.97 28.1003 8.084 28.4483 8.168C28.7963 8.252 29.1803 8.324 29.6003 8.384C30.0323 8.432 30.4583 8.51 30.8783 8.618C31.2983 8.726 31.6823 8.876 32.0303 9.068C32.3903 9.248 32.6783 9.506 32.8943 9.842C33.1103 10.178 33.2183 10.616 33.2183 11.156C33.2183 11.756 33.0383 12.278 32.6783 12.722C32.3303 13.166 31.8323 13.514 31.1843 13.766C30.5363 14.006 29.7623 14.126 28.8623 14.126ZM40.2767 4.28C41.0447 4.28 41.7287 4.43 42.3287 4.73C42.9407 5.03 43.4207 5.492 43.7687 6.116C44.1167 6.728 44.2907 7.52 44.2907 8.492V14H42.0407V8.78C42.0407 7.928 41.8367 7.292 41.4287 6.872C41.0327 6.452 40.4747 6.242 39.7547 6.242C39.2267 6.242 38.7587 6.35 38.3507 6.566C37.9427 6.782 37.6247 7.106 37.3967 7.538C37.1807 7.958 37.0727 8.492 37.0727 9.14V14H34.8227V0.643999H37.0727V6.98L36.5867 6.188C36.9227 5.576 37.4087 5.108 38.0447 4.784C38.6927 4.448 39.4367 4.28 40.2767 4.28ZM47.0276 14V1.4H52.9316C54.4436 1.4 55.5956 1.7 56.3876 2.3C57.1796 2.888 57.5756 3.68 57.5756 4.676C57.5756 5.348 57.4196 5.924 57.1076 6.404C56.7956 6.872 56.3756 7.238 55.8476 7.502C55.3316 7.754 54.7676 7.88 54.1556 7.88L54.4796 7.232C55.1876 7.232 55.8236 7.364 56.3876 7.628C56.9516 7.88 57.3956 8.252 57.7196 8.744C58.0556 9.236 58.2236 9.848 58.2236 10.58C58.2236 11.66 57.8096 12.5 56.9816 13.1C56.1536 13.7 54.9236 14 53.2916 14H47.0276ZM49.3676 12.164H53.1476C54.0236 12.164 54.6956 12.02 55.1636 11.732C55.6316 11.444 55.8656 10.982 55.8656 10.346C55.8656 9.722 55.6316 9.266 55.1636 8.978C54.6956 8.678 54.0236 8.528 53.1476 8.528H49.1876V6.71H52.6796C53.4956 6.71 54.1196 6.566 54.5516 6.278C54.9956 5.99 55.2176 5.558 55.2176 4.982C55.2176 4.394 54.9956 3.956 54.5516 3.668C54.1196 3.38 53.4956 3.236 52.6796 3.236H49.3676V12.164ZM66.0936 14V12.056L65.9676 11.642V8.24C65.9676 7.58 65.7696 7.07 65.3736 6.71C64.9776 6.338 64.3776 6.152 63.5736 6.152C63.0336 6.152 62.4996 6.236 61.9716 6.404C61.4556 6.572 61.0176 6.806 60.6576 7.106L59.7756 5.468C60.2916 5.072 60.9036 4.778 61.6116 4.586C62.3316 4.382 63.0756 4.28 63.8436 4.28C65.2356 4.28 66.3096 4.616 67.0656 5.288C67.8336 5.948 68.2176 6.974 68.2176 8.366V14H66.0936ZM63.0696 14.126C62.3496 14.126 61.7196 14.006 61.1796 13.766C60.6396 13.514 60.2196 13.172 59.9196 12.74C59.6316 12.296 59.4876 11.798 59.4876 11.246C59.4876 10.706 59.6136 10.22 59.8656 9.788C60.1296 9.356 60.5556 9.014 61.1436 8.762C61.7316 8.51 62.5116 8.384 63.4836 8.384H66.2736V9.878H63.6456C62.8776 9.878 62.3616 10.004 62.0976 10.256C61.8336 10.496 61.7016 10.796 61.7016 11.156C61.7016 11.564 61.8636 11.888 62.1876 12.128C62.5116 12.368 62.9616 12.488 63.5376 12.488C64.0896 12.488 64.5816 12.362 65.0136 12.11C65.4576 11.858 65.7756 11.486 65.9676 10.994L66.3456 12.344C66.1296 12.908 65.7396 13.346 65.1756 13.658C64.6236 13.97 63.9216 14.126 63.0696 14.126ZM75.1995 14.126C74.1915 14.126 73.2915 13.916 72.4995 13.496C71.7195 13.064 71.1075 12.476 70.6635 11.732C70.2195 10.988 69.9975 10.142 69.9975 9.194C69.9975 8.234 70.2195 7.388 70.6635 6.656C71.1075 5.912 71.7195 5.33 72.4995 4.91C73.2915 4.49 74.1915 4.28 75.1995 4.28C76.1355 4.28 76.9575 4.472 77.6655 4.856C78.3855 5.228 78.9315 5.78 79.3035 6.512L77.5755 7.52C77.2875 7.064 76.9335 6.728 76.5135 6.512C76.1055 6.296 75.6615 6.188 75.1815 6.188C74.6295 6.188 74.1315 6.308 73.6875 6.548C73.2435 6.788 72.8955 7.136 72.6435 7.592C72.3915 8.036 72.2655 8.57 72.2655 9.194C72.2655 9.818 72.3915 10.358 72.6435 10.814C72.8955 11.258 73.2435 11.6 73.6875 11.84C74.1315 12.08 74.6295 12.2 75.1815 12.2C75.6615 12.2 76.1055 12.092 76.5135 11.876C76.9335 11.66 77.2875 11.324 77.5755 10.868L79.3035 11.876C78.9315 12.596 78.3855 13.154 77.6655 13.55C76.9575 13.934 76.1355 14.126 75.1995 14.126ZM82.6632 11.858L82.7172 9.032L87.7392 4.388H90.4392L86.1732 8.672L84.9852 9.662L82.6632 11.858ZM80.8272 14V0.643999H83.0772V14H80.8272ZM88.0812 14L84.5712 9.662L85.9932 7.862L90.8172 14H88.0812ZM96.7945 14V1.4H102.699C104.211 1.4 105.363 1.7 106.155 2.3C106.947 2.888 107.343 3.68 107.343 4.676C107.343 5.348 107.187 5.924 106.875 6.404C106.563 6.872 106.143 7.238 105.615 7.502C105.099 7.754 104.535 7.88 103.923 7.88L104.247 7.232C104.955 7.232 105.591 7.364 106.155 7.628C106.719 7.88 107.163 8.252 107.487 8.744C107.823 9.236 107.991 9.848 107.991 10.58C107.991 11.66 107.577 12.5 106.749 13.1C105.921 13.7 104.691 14 103.059 14H96.7945ZM99.1345 12.164H102.915C103.791 12.164 104.463 12.02 104.931 11.732C105.399 11.444 105.633 10.982 105.633 10.346C105.633 9.722 105.399 9.266 104.931 8.978C104.463 8.678 103.791 8.528 102.915 8.528H98.9545V6.71H102.447C103.263 6.71 103.887 6.566 104.319 6.278C104.763 5.99 104.985 5.558 104.985 4.982C104.985 4.394 104.763 3.956 104.319 3.668C103.887 3.38 103.263 3.236 102.447 3.236H99.1345V12.164ZM115.861 14V12.056L115.735 11.642V8.24C115.735 7.58 115.537 7.07 115.141 6.71C114.745 6.338 114.145 6.152 113.341 6.152C112.801 6.152 112.267 6.236 111.739 6.404C111.223 6.572 110.785 6.806 110.425 7.106L109.543 5.468C110.059 5.072 110.671 4.778 111.379 4.586C112.099 4.382 112.843 4.28 113.611 4.28C115.003 4.28 116.077 4.616 116.833 5.288C117.601 5.948 117.985 6.974 117.985 8.366V14H115.861ZM112.837 14.126C112.117 14.126 111.487 14.006 110.947 13.766C110.407 13.514 109.987 13.172 109.687 12.74C109.399 12.296 109.255 11.798 109.255 11.246C109.255 10.706 109.381 10.22 109.633 9.788C109.897 9.356 110.323 9.014 110.911 8.762C111.499 8.51 112.279 8.384 113.251 8.384H116.041V9.878H113.413C112.645 9.878 112.129 10.004 111.865 10.256C111.601 10.496 111.469 10.796 111.469 11.156C111.469 11.564 111.631 11.888 111.955 12.128C112.279 12.368 112.729 12.488 113.305 12.488C113.857 12.488 114.349 12.362 114.781 12.11C115.225 11.858 115.543 11.486 115.735 10.994L116.113 12.344C115.897 12.908 115.507 13.346 114.943 13.658C114.391 13.97 113.689 14.126 112.837 14.126ZM120.539 14V0.643999H122.789V14H120.539ZM131.331 14V12.056L131.205 11.642V8.24C131.205 7.58 131.007 7.07 130.611 6.71C130.215 6.338 129.615 6.152 128.811 6.152C128.271 6.152 127.737 6.236 127.209 6.404C126.693 6.572 126.255 6.806 125.895 7.106L125.013 5.468C125.529 5.072 126.141 4.778 126.849 4.586C127.569 4.382 128.313 4.28 129.081 4.28C130.473 4.28 131.547 4.616 132.303 5.288C133.071 5.948 133.455 6.974 133.455 8.366V14H131.331ZM128.307 14.126C127.587 14.126 126.957 14.006 126.417 13.766C125.877 13.514 125.457 13.172 125.157 12.74C124.869 12.296 124.725 11.798 124.725 11.246C124.725 10.706 124.851 10.22 125.103 9.788C125.367 9.356 125.793 9.014 126.381 8.762C126.969 8.51 127.749 8.384 128.721 8.384H131.511V9.878H128.883C128.115 9.878 127.599 10.004 127.335 10.256C127.071 10.496 126.939 10.796 126.939 11.156C126.939 11.564 127.101 11.888 127.425 12.128C127.749 12.368 128.199 12.488 128.775 12.488C129.327 12.488 129.819 12.362 130.251 12.11C130.695 11.858 131.013 11.486 131.205 10.994L131.583 12.344C131.367 12.908 130.977 13.346 130.413 13.658C129.861 13.97 129.159 14.126 128.307 14.126ZM141.463 4.28C142.231 4.28 142.915 4.43 143.515 4.73C144.127 5.03 144.607 5.492 144.955 6.116C145.303 6.728 145.477 7.52 145.477 8.492V14H143.227V8.78C143.227 7.928 143.023 7.292 142.615 6.872C142.219 6.452 141.661 6.242 140.941 6.242C140.413 6.242 139.945 6.35 139.537 6.566C139.129 6.782 138.811 7.106 138.583 7.538C138.367 7.958 138.259 8.492 138.259 9.14V14H136.009V4.388H138.151V6.98L137.773 6.188C138.109 5.576 138.595 5.108 139.231 4.784C139.879 4.448 140.623 4.28 141.463 4.28ZM152.425 14.126C151.417 14.126 150.517 13.916 149.725 13.496C148.945 13.064 148.333 12.476 147.889 11.732C147.445 10.988 147.223 10.142 147.223 9.194C147.223 8.234 147.445 7.388 147.889 6.656C148.333 5.912 148.945 5.33 149.725 4.91C150.517 4.49 151.417 4.28 152.425 4.28C153.361 4.28 154.183 4.472 154.891 4.856C155.611 5.228 156.157 5.78 156.529 6.512L154.801 7.52C154.513 7.064 154.159 6.728 153.739 6.512C153.331 6.296 152.887 6.188 152.407 6.188C151.855 6.188 151.357 6.308 150.913 6.548C150.469 6.788 150.121 7.136 149.869 7.592C149.617 8.036 149.491 8.57 149.491 9.194C149.491 9.818 149.617 10.358 149.869 10.814C150.121 11.258 150.469 11.6 150.913 11.84C151.357 12.08 151.855 12.2 152.407 12.2C152.887 12.2 153.331 12.092 153.739 11.876C154.159 11.66 154.513 11.324 154.801 10.868L156.529 11.876C156.157 12.596 155.611 13.154 154.891 13.55C154.183 13.934 153.361 14.126 152.425 14.126ZM162.518 14.126C161.45 14.126 160.514 13.916 159.71 13.496C158.918 13.064 158.3 12.476 157.856 11.732C157.424 10.988 157.208 10.142 157.208 9.194C157.208 8.234 157.418 7.388 157.838 6.656C158.27 5.912 158.858 5.33 159.602 4.91C160.358 4.49 161.216 4.28 162.176 4.28C163.112 4.28 163.946 4.484 164.678 4.892C165.41 5.3 165.986 5.876 166.406 6.62C166.826 7.364 167.036 8.24 167.036 9.248C167.036 9.344 167.03 9.452 167.018 9.572C167.018 9.692 167.012 9.806 167 9.914H158.99V8.42H165.812L164.93 8.888C164.942 8.336 164.828 7.85 164.588 7.43C164.348 7.01 164.018 6.68 163.598 6.44C163.19 6.2 162.716 6.08 162.176 6.08C161.624 6.08 161.138 6.2 160.718 6.44C160.31 6.68 159.986 7.016 159.746 7.448C159.518 7.868 159.404 8.366 159.404 8.942V9.302C159.404 9.878 159.536 10.388 159.8 10.832C160.064 11.276 160.436 11.618 160.916 11.858C161.396 12.098 161.948 12.218 162.572 12.218C163.112 12.218 163.598 12.134 164.03 11.966C164.462 11.798 164.846 11.534 165.182 11.174L166.388 12.56C165.956 13.064 165.41 13.454 164.75 13.73C164.102 13.994 163.358 14.126 162.518 14.126Z" fill="white"/>
</svg>
