<svg width="9" height="16" viewBox="0 0 9 16" fill="none" xmlns="http://www.w3.org/2000/svg">
<path fill-rule="evenodd" clip-rule="evenodd" d="M0.29984 0.233752C0.461465 0.0836748 0.675848 0 0.89874 0C1.12163 0 1.33602 0.0836748 1.49764 0.233752L8.50364 6.84492C8.66046 6.99065 8.78534 7.16605 8.87067 7.36044C8.956 7.55484 9 7.76417 9 7.97572C9 8.18726 8.956 8.39659 8.87067 8.59099C8.78534 8.78539 8.66046 8.96078 8.50364 9.10651L1.44691 15.7665C1.11965 16.0745 0.589472 16.0785 0.257295 15.7745C0.176873 15.7021 0.112536 15.6142 0.0682783 15.5165C0.0240202 15.4187 0.000786781 15.3131 1.90735e-05 15.2062C-0.000748634 15.0993 0.0209675 14.9934 0.063818 14.895C0.106668 14.7967 0.169739 14.708 0.249113 14.6345L6.70693 8.54091C6.78541 8.46804 6.8479 8.38032 6.8906 8.28309C6.93331 8.18585 6.95533 8.08114 6.95533 7.97532C6.95533 7.86949 6.93331 7.76478 6.8906 7.66754C6.8479 7.57031 6.78541 7.48259 6.70693 7.40972L0.300657 1.36415C0.222203 1.29135 0.159726 1.20369 0.117032 1.10652C0.074338 1.00936 0.0523205 0.904706 0.0523205 0.79895C0.0523205 0.693193 0.074338 0.588543 0.117032 0.491375C0.159726 0.394206 0.221386 0.306552 0.29984 0.233752Z" fill="#09376E"/>
</svg>
