<svg width="137" height="15" viewBox="0 0 137 15" fill="none" xmlns="http://www.w3.org/2000/svg">
<path d="M4.5758 14V3.38H0.399797V1.4H11.0918V3.38H6.9158V14H4.5758ZM15.6342 14.126C14.6502 14.126 13.7742 13.916 13.0062 13.496C12.2382 13.064 11.6322 12.476 11.1882 11.732C10.7442 10.988 10.5222 10.142 10.5222 9.194C10.5222 8.234 10.7442 7.388 11.1882 6.656C11.6322 5.912 12.2382 5.33 13.0062 4.91C13.7742 4.49 14.6502 4.28 15.6342 4.28C16.6302 4.28 17.5122 4.49 18.2802 4.91C19.0602 5.33 19.6662 5.906 20.0982 6.638C20.5422 7.37 20.7642 8.222 20.7642 9.194C20.7642 10.142 20.5422 10.988 20.0982 11.732C19.6662 12.476 19.0602 13.064 18.2802 13.496C17.5122 13.916 16.6302 14.126 15.6342 14.126ZM15.6342 12.2C16.1862 12.2 16.6782 12.08 17.1102 11.84C17.5422 11.6 17.8782 11.252 18.1182 10.796C18.3702 10.34 18.4962 9.806 18.4962 9.194C18.4962 8.57 18.3702 8.036 18.1182 7.592C17.8782 7.136 17.5422 6.788 17.1102 6.548C16.6782 6.308 16.1922 6.188 15.6522 6.188C15.1002 6.188 14.6082 6.308 14.1762 6.548C13.7562 6.788 13.4202 7.136 13.1682 7.592C12.9162 8.036 12.7902 8.57 12.7902 9.194C12.7902 9.806 12.9162 10.34 13.1682 10.796C13.4202 11.252 13.7562 11.6 14.1762 11.84C14.6082 12.08 15.0942 12.2 15.6342 12.2ZM26.2004 14.126C25.1444 14.126 24.3284 13.856 23.7524 13.316C23.1764 12.764 22.8884 11.954 22.8884 10.886V2.264H25.1384V10.832C25.1384 11.288 25.2524 11.642 25.4804 11.894C25.7204 12.146 26.0504 12.272 26.4704 12.272C26.9744 12.272 27.3944 12.14 27.7304 11.876L28.3604 13.478C28.0964 13.694 27.7724 13.856 27.3884 13.964C27.0044 14.072 26.6084 14.126 26.2004 14.126ZM21.3044 6.26V4.46H27.7124V6.26H21.3044ZM35.8 14V12.056L35.674 11.642V8.24C35.674 7.58 35.476 7.07 35.08 6.71C34.684 6.338 34.084 6.152 33.28 6.152C32.74 6.152 32.206 6.236 31.678 6.404C31.162 6.572 30.724 6.806 30.364 7.106L29.482 5.468C29.998 5.072 30.61 4.778 31.318 4.586C32.038 4.382 32.782 4.28 33.55 4.28C34.942 4.28 36.016 4.616 36.772 5.288C37.54 5.948 37.924 6.974 37.924 8.366V14H35.8ZM32.776 14.126C32.056 14.126 31.426 14.006 30.886 13.766C30.346 13.514 29.926 13.172 29.626 12.74C29.338 12.296 29.194 11.798 29.194 11.246C29.194 10.706 29.32 10.22 29.572 9.788C29.836 9.356 30.262 9.014 30.85 8.762C31.438 8.51 32.218 8.384 33.19 8.384H35.98V9.878H33.352C32.584 9.878 32.068 10.004 31.804 10.256C31.54 10.496 31.408 10.796 31.408 11.156C31.408 11.564 31.57 11.888 31.894 12.128C32.218 12.368 32.668 12.488 33.244 12.488C33.796 12.488 34.288 12.362 34.72 12.11C35.164 11.858 35.482 11.486 35.674 10.994L36.052 12.344C35.836 12.908 35.446 13.346 34.882 13.658C34.33 13.97 33.628 14.126 32.776 14.126ZM40.4783 14V0.643999H42.7283V14H40.4783ZM56.0373 14.18C55.0773 14.18 54.1833 14.024 53.3553 13.712C52.5393 13.388 51.8253 12.938 51.2133 12.362C50.6133 11.774 50.1453 11.084 49.8093 10.292C49.4733 9.5 49.3053 8.636 49.3053 7.7C49.3053 6.764 49.4733 5.9 49.8093 5.108C50.1453 4.316 50.6193 3.632 51.2313 3.056C51.8433 2.468 52.5573 2.018 53.3733 1.706C54.1893 1.382 55.0833 1.22 56.0553 1.22C57.0873 1.22 58.0293 1.4 58.8813 1.76C59.7333 2.108 60.4533 2.63 61.0413 3.326L59.5293 4.748C59.0733 4.256 58.5633 3.89 57.9993 3.65C57.4353 3.398 56.8233 3.272 56.1633 3.272C55.5033 3.272 54.8973 3.38 54.3453 3.596C53.8053 3.812 53.3313 4.118 52.9233 4.514C52.5273 4.91 52.2153 5.378 51.9873 5.918C51.7713 6.458 51.6633 7.052 51.6633 7.7C51.6633 8.348 51.7713 8.942 51.9873 9.482C52.2153 10.022 52.5273 10.49 52.9233 10.886C53.3313 11.282 53.8053 11.588 54.3453 11.804C54.8973 12.02 55.5033 12.128 56.1633 12.128C56.8233 12.128 57.4353 12.008 57.9993 11.768C58.5633 11.516 59.0733 11.138 59.5293 10.634L61.0413 12.074C60.4533 12.758 59.7333 13.28 58.8813 13.64C58.0293 14 57.0813 14.18 56.0373 14.18ZM68.5682 14V12.056L68.4422 11.642V8.24C68.4422 7.58 68.2442 7.07 67.8482 6.71C67.4522 6.338 66.8522 6.152 66.0482 6.152C65.5082 6.152 64.9742 6.236 64.4462 6.404C63.9302 6.572 63.4922 6.806 63.1322 7.106L62.2502 5.468C62.7662 5.072 63.3782 4.778 64.0862 4.586C64.8062 4.382 65.5502 4.28 66.3182 4.28C67.7102 4.28 68.7842 4.616 69.5402 5.288C70.3082 5.948 70.6922 6.974 70.6922 8.366V14H68.5682ZM65.5442 14.126C64.8242 14.126 64.1942 14.006 63.6542 13.766C63.1142 13.514 62.6942 13.172 62.3942 12.74C62.1062 12.296 61.9622 11.798 61.9622 11.246C61.9622 10.706 62.0882 10.22 62.3402 9.788C62.6042 9.356 63.0302 9.014 63.6182 8.762C64.2062 8.51 64.9862 8.384 65.9582 8.384H68.7482V9.878H66.1202C65.3522 9.878 64.8362 10.004 64.5722 10.256C64.3082 10.496 64.1762 10.796 64.1762 11.156C64.1762 11.564 64.3382 11.888 64.6622 12.128C64.9862 12.368 65.4362 12.488 66.0122 12.488C66.5642 12.488 67.0562 12.362 67.4882 12.11C67.9322 11.858 68.2502 11.486 68.4422 10.994L68.8202 12.344C68.6042 12.908 68.2142 13.346 67.6502 13.658C67.0982 13.97 66.3962 14.126 65.5442 14.126ZM76.2165 14.126C75.4125 14.126 74.6385 14.024 73.8945 13.82C73.1625 13.604 72.5805 13.346 72.1485 13.046L73.0125 11.336C73.4445 11.612 73.9605 11.84 74.5605 12.02C75.1605 12.2 75.7605 12.29 76.3605 12.29C77.0685 12.29 77.5785 12.194 77.8905 12.002C78.2145 11.81 78.3765 11.552 78.3765 11.228C78.3765 10.964 78.2685 10.766 78.0525 10.634C77.8365 10.49 77.5545 10.382 77.2065 10.31C76.8585 10.238 76.4685 10.172 76.0365 10.112C75.6165 10.052 75.1905 9.974 74.7585 9.878C74.3385 9.77 73.9545 9.62 73.6065 9.428C73.2585 9.224 72.9765 8.954 72.7605 8.618C72.5445 8.282 72.4365 7.838 72.4365 7.286C72.4365 6.674 72.6105 6.146 72.9585 5.702C73.3065 5.246 73.7925 4.898 74.4165 4.658C75.0525 4.406 75.8025 4.28 76.6665 4.28C77.3145 4.28 77.9685 4.352 78.6285 4.496C79.2885 4.64 79.8345 4.844 80.2665 5.108L79.4025 6.818C78.9465 6.542 78.4845 6.356 78.0165 6.26C77.5605 6.152 77.1045 6.098 76.6485 6.098C75.9645 6.098 75.4545 6.2 75.1185 6.404C74.7945 6.608 74.6325 6.866 74.6325 7.178C74.6325 7.466 74.7405 7.682 74.9565 7.826C75.1725 7.97 75.4545 8.084 75.8025 8.168C76.1505 8.252 76.5345 8.324 76.9545 8.384C77.3865 8.432 77.8125 8.51 78.2325 8.618C78.6525 8.726 79.0365 8.876 79.3845 9.068C79.7445 9.248 80.0325 9.506 80.2485 9.842C80.4645 10.178 80.5725 10.616 80.5725 11.156C80.5725 11.756 80.3925 12.278 80.0325 12.722C79.6845 13.166 79.1865 13.514 78.5385 13.766C77.8905 14.006 77.1165 14.126 76.2165 14.126ZM87.6308 4.28C88.3988 4.28 89.0828 4.43 89.6828 4.73C90.2948 5.03 90.7748 5.492 91.1228 6.116C91.4708 6.728 91.6448 7.52 91.6448 8.492V14H89.3948V8.78C89.3948 7.928 89.1908 7.292 88.7828 6.872C88.3868 6.452 87.8288 6.242 87.1088 6.242C86.5808 6.242 86.1128 6.35 85.7048 6.566C85.2968 6.782 84.9788 7.106 84.7508 7.538C84.5348 7.958 84.4268 8.492 84.4268 9.14V14H82.1768V0.643999H84.4268V6.98L83.9408 6.188C84.2768 5.576 84.7628 5.108 85.3988 4.784C86.0468 4.448 86.7908 4.28 87.6308 4.28ZM99.4938 14.126C98.6778 14.126 97.9518 13.946 97.3158 13.586C96.6798 13.226 96.1758 12.686 95.8038 11.966C95.4438 11.234 95.2638 10.31 95.2638 9.194C95.2638 8.066 95.4498 7.142 95.8218 6.422C96.2058 5.702 96.7158 5.168 97.3518 4.82C97.9998 4.46 98.7138 4.28 99.4938 4.28C100.442 4.28 101.276 4.484 101.996 4.892C102.728 5.3 103.304 5.87 103.724 6.602C104.156 7.334 104.372 8.198 104.372 9.194C104.372 10.19 104.156 11.054 103.724 11.786C103.304 12.518 102.728 13.094 101.996 13.514C101.276 13.922 100.442 14.126 99.4938 14.126ZM94.1658 14V0.643999H96.4158V6.62L96.2358 9.176L96.3078 11.732V14H94.1658ZM99.2418 12.2C99.7818 12.2 100.262 12.08 100.682 11.84C101.114 11.6 101.456 11.252 101.708 10.796C101.96 10.34 102.086 9.806 102.086 9.194C102.086 8.57 101.96 8.036 101.708 7.592C101.456 7.136 101.114 6.788 100.682 6.548C100.262 6.308 99.7818 6.188 99.2418 6.188C98.7018 6.188 98.2158 6.308 97.7838 6.548C97.3518 6.788 97.0098 7.136 96.7578 7.592C96.5058 8.036 96.3798 8.57 96.3798 9.194C96.3798 9.806 96.5058 10.34 96.7578 10.796C97.0098 11.252 97.3518 11.6 97.7838 11.84C98.2158 12.08 98.7018 12.2 99.2418 12.2ZM111.971 14V12.056L111.845 11.642V8.24C111.845 7.58 111.647 7.07 111.251 6.71C110.855 6.338 110.255 6.152 109.451 6.152C108.911 6.152 108.377 6.236 107.849 6.404C107.333 6.572 106.895 6.806 106.535 7.106L105.653 5.468C106.169 5.072 106.781 4.778 107.489 4.586C108.209 4.382 108.953 4.28 109.721 4.28C111.113 4.28 112.187 4.616 112.943 5.288C113.711 5.948 114.095 6.974 114.095 8.366V14H111.971ZM108.947 14.126C108.227 14.126 107.597 14.006 107.057 13.766C106.517 13.514 106.097 13.172 105.797 12.74C105.509 12.296 105.365 11.798 105.365 11.246C105.365 10.706 105.491 10.22 105.743 9.788C106.007 9.356 106.433 9.014 107.021 8.762C107.609 8.51 108.389 8.384 109.361 8.384H112.151V9.878H109.523C108.755 9.878 108.239 10.004 107.975 10.256C107.711 10.496 107.579 10.796 107.579 11.156C107.579 11.564 107.741 11.888 108.065 12.128C108.389 12.368 108.839 12.488 109.415 12.488C109.967 12.488 110.459 12.362 110.891 12.11C111.335 11.858 111.653 11.486 111.845 10.994L112.223 12.344C112.007 12.908 111.617 13.346 111.053 13.658C110.501 13.97 109.799 14.126 108.947 14.126ZM121.077 14.126C120.069 14.126 119.169 13.916 118.377 13.496C117.597 13.064 116.985 12.476 116.541 11.732C116.097 10.988 115.875 10.142 115.875 9.194C115.875 8.234 116.097 7.388 116.541 6.656C116.985 5.912 117.597 5.33 118.377 4.91C119.169 4.49 120.069 4.28 121.077 4.28C122.013 4.28 122.835 4.472 123.543 4.856C124.263 5.228 124.809 5.78 125.181 6.512L123.453 7.52C123.165 7.064 122.811 6.728 122.391 6.512C121.983 6.296 121.539 6.188 121.059 6.188C120.507 6.188 120.009 6.308 119.565 6.548C119.121 6.788 118.773 7.136 118.521 7.592C118.269 8.036 118.143 8.57 118.143 9.194C118.143 9.818 118.269 10.358 118.521 10.814C118.773 11.258 119.121 11.6 119.565 11.84C120.009 12.08 120.507 12.2 121.059 12.2C121.539 12.2 121.983 12.092 122.391 11.876C122.811 11.66 123.165 11.324 123.453 10.868L125.181 11.876C124.809 12.596 124.263 13.154 123.543 13.55C122.835 13.934 122.013 14.126 121.077 14.126ZM128.541 11.858L128.595 9.032L133.617 4.388H136.317L132.051 8.672L130.863 9.662L128.541 11.858ZM126.705 14V0.643999H128.955V14H126.705ZM133.959 14L130.449 9.662L131.871 7.862L136.695 14H133.959Z" fill="white"/>
</svg>
