<svg width="257" height="16" viewBox="0 0 257 16" fill="none" xmlns="http://www.w3.org/2000/svg">
<path d="M0.309125 12L5.30113 0.799999H7.86113L12.8691 12H10.1491L6.05313 2.112H7.07713L2.96513 12H0.309125ZM2.80512 9.6L3.49313 7.632H9.25313L9.95713 9.6H2.80512ZM17.1397 12.128C16.329 12.128 15.5983 11.9467 14.9477 11.584C14.297 11.2107 13.7797 10.6933 13.3957 10.032C13.0223 9.37067 12.8357 8.592 12.8357 7.696C12.8357 6.78933 13.0223 6.00533 13.3957 5.344C13.7797 4.68267 14.297 4.17067 14.9477 3.808C15.5983 3.44533 16.329 3.264 17.1397 3.264C17.865 3.264 18.4997 3.424 19.0437 3.744C19.5877 4.064 20.009 4.54933 20.3077 5.2C20.6063 5.85067 20.7557 6.68267 20.7557 7.696C20.7557 8.69867 20.6117 9.53067 20.3237 10.192C20.0357 10.8427 19.6197 11.328 19.0757 11.648C18.5423 11.968 17.897 12.128 17.1397 12.128ZM17.5717 10.08C17.977 10.08 18.345 9.984 18.6757 9.792C19.0063 9.6 19.2677 9.328 19.4597 8.976C19.6623 8.61333 19.7637 8.18667 19.7637 7.696C19.7637 7.19467 19.6623 6.768 19.4597 6.416C19.2677 6.064 19.0063 5.792 18.6757 5.6C18.345 5.408 17.977 5.312 17.5717 5.312C17.1557 5.312 16.7823 5.408 16.4517 5.6C16.121 5.792 15.8543 6.064 15.6517 6.416C15.4597 6.768 15.3637 7.19467 15.3637 7.696C15.3637 8.18667 15.4597 8.61333 15.6517 8.976C15.8543 9.328 16.121 9.6 16.4517 9.792C16.7823 9.984 17.1557 10.08 17.5717 10.08ZM19.8277 12V10.24L19.8757 7.68L19.7157 5.136V0.127999H22.2117V12H19.8277ZM27.8845 12.128C27.0738 12.128 26.3431 11.9467 25.6925 11.584C25.0418 11.2107 24.5245 10.6933 24.1405 10.032C23.7671 9.37067 23.5805 8.592 23.5805 7.696C23.5805 6.78933 23.7671 6.00533 24.1405 5.344C24.5245 4.68267 25.0418 4.17067 25.6925 3.808C26.3431 3.44533 27.0738 3.264 27.8845 3.264C28.6098 3.264 29.2445 3.424 29.7885 3.744C30.3325 4.064 30.7538 4.54933 31.0525 5.2C31.3511 5.85067 31.5005 6.68267 31.5005 7.696C31.5005 8.69867 31.3565 9.53067 31.0685 10.192C30.7805 10.8427 30.3645 11.328 29.8205 11.648C29.2871 11.968 28.6418 12.128 27.8845 12.128ZM28.3165 10.08C28.7218 10.08 29.0898 9.984 29.4205 9.792C29.7511 9.6 30.0125 9.328 30.2045 8.976C30.4071 8.61333 30.5085 8.18667 30.5085 7.696C30.5085 7.19467 30.4071 6.768 30.2045 6.416C30.0125 6.064 29.7511 5.792 29.4205 5.6C29.0898 5.408 28.7218 5.312 28.3165 5.312C27.9005 5.312 27.5271 5.408 27.1965 5.6C26.8658 5.792 26.5991 6.064 26.3965 6.416C26.2045 6.768 26.1085 7.19467 26.1085 7.696C26.1085 8.18667 26.2045 8.61333 26.3965 8.976C26.5991 9.328 26.8658 9.6 27.1965 9.792C27.5271 9.984 27.9005 10.08 28.3165 10.08ZM30.5725 12V10.24L30.6205 7.68L30.4605 5.136V0.127999H32.9565V12H30.5725ZM39.3072 12V0.799999H41.4512L46.2192 8.704H45.0832L49.7712 0.799999H51.8992L51.9312 12H49.4992L49.4832 4.528H49.9312L46.1872 10.816H45.0192L41.1952 4.528H41.7392V12H39.3072ZM58.1751 12.128C57.2577 12.128 56.4417 11.936 55.7271 11.552C55.0231 11.168 54.4631 10.6453 54.0471 9.984C53.6417 9.312 53.4391 8.54933 53.4391 7.696C53.4391 6.832 53.6417 6.06933 54.0471 5.408C54.4631 4.736 55.0231 4.21333 55.7271 3.84C56.4417 3.456 57.2577 3.264 58.1751 3.264C59.0817 3.264 59.8924 3.456 60.6071 3.84C61.3217 4.21333 61.8817 4.73067 62.2871 5.392C62.6924 6.05333 62.8951 6.82133 62.8951 7.696C62.8951 8.54933 62.6924 9.312 62.2871 9.984C61.8817 10.6453 61.3217 11.168 60.6071 11.552C59.8924 11.936 59.0817 12.128 58.1751 12.128ZM58.1751 10.08C58.5911 10.08 58.9644 9.984 59.2951 9.792C59.6257 9.6 59.8871 9.328 60.0791 8.976C60.2711 8.61333 60.3671 8.18667 60.3671 7.696C60.3671 7.19467 60.2711 6.768 60.0791 6.416C59.8871 6.064 59.6257 5.792 59.2951 5.6C58.9644 5.408 58.5911 5.312 58.1751 5.312C57.7591 5.312 57.3857 5.408 57.0551 5.6C56.7244 5.792 56.4577 6.064 56.2551 6.416C56.0631 6.768 55.9671 7.19467 55.9671 7.696C55.9671 8.18667 56.0631 8.61333 56.2551 8.976C56.4577 9.328 56.7244 9.6 57.0551 9.792C57.3857 9.984 57.7591 10.08 58.1751 10.08ZM69.4621 3.264C70.1448 3.264 70.7528 3.40267 71.2861 3.68C71.8301 3.94667 72.2568 4.36267 72.5661 4.928C72.8755 5.48267 73.0301 6.19733 73.0301 7.072V12H70.5341V7.456C70.5341 6.76267 70.3795 6.25067 70.0701 5.92C69.7715 5.58933 69.3448 5.424 68.7901 5.424C68.3955 5.424 68.0381 5.50933 67.7181 5.68C67.4088 5.84 67.1635 6.09067 66.9821 6.432C66.8115 6.77333 66.7261 7.21067 66.7261 7.744V12H64.2301V3.392H66.6141V5.776L66.1661 5.056C66.4755 4.48 66.9181 4.03733 67.4941 3.728C68.0701 3.41867 68.7261 3.264 69.4621 3.264ZM79.2938 12.128C78.3125 12.128 77.4485 11.936 76.7018 11.552C75.9658 11.168 75.3951 10.6453 74.9898 9.984C74.5845 9.312 74.3818 8.54933 74.3818 7.696C74.3818 6.832 74.5791 6.06933 74.9738 5.408C75.3791 4.736 75.9285 4.21333 76.6218 3.84C77.3151 3.456 78.0991 3.264 78.9738 3.264C79.8165 3.264 80.5738 3.44533 81.2458 3.808C81.9285 4.16 82.4671 4.672 82.8618 5.344C83.2565 6.00533 83.4538 6.8 83.4538 7.728C83.4538 7.824 83.4485 7.936 83.4378 8.064C83.4271 8.18133 83.4165 8.29333 83.4058 8.4H76.4138V6.944H82.0938L81.1338 7.376C81.1338 6.928 81.0431 6.53867 80.8618 6.208C80.6805 5.87733 80.4298 5.62133 80.1098 5.44C79.7898 5.248 79.4165 5.152 78.9898 5.152C78.5631 5.152 78.1845 5.248 77.8538 5.44C77.5338 5.62133 77.2831 5.88267 77.1018 6.224C76.9205 6.55467 76.8298 6.94933 76.8298 7.408V7.792C76.8298 8.26133 76.9311 8.67733 77.1338 9.04C77.3471 9.392 77.6405 9.664 78.0138 9.856C78.3978 10.0373 78.8458 10.128 79.3578 10.128C79.8165 10.128 80.2165 10.0587 80.5578 9.92C80.9098 9.78133 81.2298 9.57333 81.5178 9.296L82.8458 10.736C82.4511 11.184 81.9551 11.5307 81.3578 11.776C80.7605 12.0107 80.0725 12.128 79.2938 12.128ZM85.714 15.232C85.266 15.232 84.8233 15.1627 84.386 15.024C83.9486 14.8853 83.5913 14.6933 83.314 14.448L84.226 12.672C84.418 12.8427 84.6366 12.976 84.882 13.072C85.138 13.168 85.3886 13.216 85.634 13.216C85.986 13.216 86.2633 13.1307 86.466 12.96C86.6793 12.8 86.8713 12.528 87.042 12.144L87.49 11.088L87.682 10.816L90.77 3.392H93.17L89.282 12.528C89.0046 13.2213 88.6846 13.7653 88.322 14.16C87.97 14.5547 87.5753 14.832 87.138 14.992C86.7113 15.152 86.2366 15.232 85.714 15.232ZM87.186 12.336L83.346 3.392H85.922L88.898 10.592L87.186 12.336ZM101.573 12.128C100.56 12.128 99.7704 11.872 99.205 11.36C98.6397 10.8373 98.357 10.064 98.357 9.04V1.488H100.853V9.008C100.853 9.37067 100.949 9.65333 101.141 9.856C101.333 10.048 101.594 10.144 101.925 10.144C102.32 10.144 102.656 10.0373 102.933 9.824L103.605 11.584C103.349 11.7653 103.04 11.904 102.677 12C102.325 12.0853 101.957 12.128 101.573 12.128ZM97.029 5.504V3.584H102.997V5.504H97.029ZM108.503 12.128C107.586 12.128 106.77 11.936 106.055 11.552C105.351 11.168 104.791 10.6453 104.375 9.984C103.97 9.312 103.767 8.54933 103.767 7.696C103.767 6.832 103.97 6.06933 104.375 5.408C104.791 4.736 105.351 4.21333 106.055 3.84C106.77 3.456 107.586 3.264 108.503 3.264C109.41 3.264 110.221 3.456 110.935 3.84C111.65 4.21333 112.21 4.73067 112.615 5.392C113.021 6.05333 113.223 6.82133 113.223 7.696C113.223 8.54933 113.021 9.312 112.615 9.984C112.21 10.6453 111.65 11.168 110.935 11.552C110.221 11.936 109.41 12.128 108.503 12.128ZM108.503 10.08C108.919 10.08 109.293 9.984 109.623 9.792C109.954 9.6 110.215 9.328 110.407 8.976C110.599 8.61333 110.695 8.18667 110.695 7.696C110.695 7.19467 110.599 6.768 110.407 6.416C110.215 6.064 109.954 5.792 109.623 5.6C109.293 5.408 108.919 5.312 108.503 5.312C108.087 5.312 107.714 5.408 107.383 5.6C107.053 5.792 106.786 6.064 106.583 6.416C106.391 6.768 106.295 7.19467 106.295 7.696C106.295 8.18667 106.391 8.61333 106.583 8.976C106.786 9.328 107.053 9.6 107.383 9.792C107.714 9.984 108.087 10.08 108.503 10.08Z" fill="black"/>
<path d="M118.932 12V0.799999H124.02C125.236 0.799999 126.308 1.03467 127.236 1.504C128.164 1.96267 128.889 2.608 129.412 3.44C129.935 4.272 130.196 5.25867 130.196 6.4C130.196 7.53067 129.935 8.51733 129.412 9.36C128.889 10.192 128.164 10.8427 127.236 11.312C126.308 11.7707 125.236 12 124.02 12H118.932ZM121.524 9.872H123.892C124.639 9.872 125.284 9.73333 125.828 9.456C126.383 9.168 126.809 8.76267 127.108 8.24C127.417 7.71733 127.572 7.104 127.572 6.4C127.572 5.68533 127.417 5.072 127.108 4.56C126.809 4.03733 126.383 3.63733 125.828 3.36C125.284 3.072 124.639 2.928 123.892 2.928H121.524V9.872ZM136.922 12V10.32L136.762 9.952V6.944C136.762 6.41067 136.596 5.99467 136.266 5.696C135.946 5.39733 135.45 5.248 134.778 5.248C134.319 5.248 133.866 5.32267 133.418 5.472C132.98 5.61067 132.607 5.80267 132.298 6.048L131.402 4.304C131.871 3.97333 132.436 3.71733 133.098 3.536C133.759 3.35467 134.431 3.264 135.114 3.264C136.426 3.264 137.444 3.57333 138.17 4.192C138.895 4.81067 139.258 5.776 139.258 7.088V12H136.922ZM134.298 12.128C133.626 12.128 133.05 12.016 132.57 11.792C132.09 11.5573 131.722 11.2427 131.466 10.848C131.21 10.4533 131.082 10.0107 131.082 9.52C131.082 9.008 131.204 8.56 131.45 8.176C131.706 7.792 132.106 7.49333 132.65 7.28C133.194 7.056 133.903 6.944 134.778 6.944H137.066V8.4H135.05C134.463 8.4 134.058 8.496 133.834 8.688C133.62 8.88 133.514 9.12 133.514 9.408C133.514 9.728 133.636 9.984 133.882 10.176C134.138 10.3573 134.484 10.448 134.922 10.448C135.338 10.448 135.711 10.352 136.042 10.16C136.372 9.95733 136.612 9.664 136.762 9.28L137.146 10.432C136.964 10.9867 136.634 11.408 136.154 11.696C135.674 11.984 135.055 12.128 134.298 12.128ZM144.079 12.128C143.343 12.128 142.634 12.0427 141.951 11.872C141.279 11.6907 140.746 11.4667 140.351 11.2L141.183 9.408C141.578 9.65333 142.042 9.856 142.575 10.016C143.119 10.1653 143.653 10.24 144.175 10.24C144.751 10.24 145.157 10.1707 145.391 10.032C145.637 9.89333 145.759 9.70133 145.759 9.456C145.759 9.25333 145.663 9.104 145.471 9.008C145.29 8.90133 145.045 8.82133 144.735 8.768C144.426 8.71467 144.085 8.66133 143.711 8.608C143.349 8.55467 142.981 8.48533 142.607 8.4C142.234 8.304 141.893 8.16533 141.583 7.984C141.274 7.80267 141.023 7.55733 140.831 7.248C140.65 6.93867 140.559 6.53867 140.559 6.048C140.559 5.504 140.714 5.024 141.023 4.608C141.343 4.192 141.802 3.86667 142.399 3.632C142.997 3.38667 143.711 3.264 144.543 3.264C145.13 3.264 145.727 3.328 146.335 3.456C146.943 3.584 147.45 3.77067 147.855 4.016L147.023 5.792C146.607 5.54667 146.186 5.38133 145.759 5.296C145.343 5.2 144.938 5.152 144.543 5.152C143.989 5.152 143.583 5.22667 143.327 5.376C143.071 5.52533 142.943 5.71733 142.943 5.952C142.943 6.16533 143.034 6.32533 143.215 6.432C143.407 6.53867 143.658 6.624 143.967 6.688C144.277 6.752 144.613 6.81067 144.975 6.864C145.349 6.90667 145.722 6.976 146.095 7.072C146.469 7.168 146.805 7.30667 147.103 7.488C147.413 7.65867 147.663 7.89867 147.855 8.208C148.047 8.50667 148.143 8.90133 148.143 9.392C148.143 9.92533 147.983 10.4 147.663 10.816C147.343 11.2213 146.879 11.5413 146.271 11.776C145.674 12.0107 144.943 12.128 144.079 12.128ZM154.582 3.264C155.265 3.264 155.873 3.40267 156.406 3.68C156.95 3.94667 157.377 4.36267 157.686 4.928C157.995 5.48267 158.15 6.19733 158.15 7.072V12H155.654V7.456C155.654 6.76267 155.499 6.25067 155.19 5.92C154.891 5.58933 154.465 5.424 153.91 5.424C153.515 5.424 153.158 5.50933 152.838 5.68C152.529 5.84 152.283 6.09067 152.102 6.432C151.931 6.77333 151.846 7.21067 151.846 7.744V12H149.35V0.127999H151.846V5.776L151.286 5.056C151.595 4.48 152.038 4.03733 152.614 3.728C153.19 3.41867 153.846 3.264 154.582 3.264ZM160.255 12V0.799999H165.727C167.135 0.799999 168.191 1.06667 168.895 1.6C169.61 2.13333 169.967 2.83733 169.967 3.712C169.967 4.29867 169.823 4.81067 169.535 5.248C169.247 5.67467 168.852 6.00533 168.351 6.24C167.85 6.47467 167.274 6.592 166.623 6.592L166.927 5.936C167.631 5.936 168.255 6.05333 168.799 6.288C169.343 6.512 169.764 6.848 170.063 7.296C170.372 7.744 170.527 8.29333 170.527 8.944C170.527 9.904 170.148 10.656 169.391 11.2C168.634 11.7333 167.519 12 166.047 12H160.255ZM162.831 10.048H165.855C166.527 10.048 167.034 9.94133 167.375 9.728C167.727 9.504 167.903 9.152 167.903 8.672C167.903 8.20267 167.727 7.856 167.375 7.632C167.034 7.39733 166.527 7.28 165.855 7.28H162.639V5.392H165.407C166.036 5.392 166.516 5.28533 166.847 5.072C167.188 4.848 167.359 4.512 167.359 4.064C167.359 3.62667 167.188 3.30133 166.847 3.088C166.516 2.864 166.036 2.752 165.407 2.752H162.831V10.048ZM177.26 12V10.32L177.1 9.952V6.944C177.1 6.41067 176.935 5.99467 176.604 5.696C176.284 5.39733 175.788 5.248 175.116 5.248C174.657 5.248 174.204 5.32267 173.756 5.472C173.319 5.61067 172.945 5.80267 172.636 6.048L171.74 4.304C172.209 3.97333 172.775 3.71733 173.436 3.536C174.097 3.35467 174.769 3.264 175.452 3.264C176.764 3.264 177.783 3.57333 178.508 4.192C179.233 4.81067 179.596 5.776 179.596 7.088V12H177.26ZM174.636 12.128C173.964 12.128 173.388 12.016 172.908 11.792C172.428 11.5573 172.06 11.2427 171.804 10.848C171.548 10.4533 171.42 10.0107 171.42 9.52C171.42 9.008 171.543 8.56 171.788 8.176C172.044 7.792 172.444 7.49333 172.988 7.28C173.532 7.056 174.241 6.944 175.116 6.944H177.404V8.4H175.388C174.801 8.4 174.396 8.496 174.172 8.688C173.959 8.88 173.852 9.12 173.852 9.408C173.852 9.728 173.975 9.984 174.22 10.176C174.476 10.3573 174.823 10.448 175.26 10.448C175.676 10.448 176.049 10.352 176.38 10.16C176.711 9.95733 176.951 9.664 177.1 9.28L177.484 10.432C177.303 10.9867 176.972 11.408 176.492 11.696C176.012 11.984 175.393 12.128 174.636 12.128ZM185.744 12.128C184.816 12.128 183.99 11.9413 183.264 11.568C182.539 11.184 181.968 10.656 181.552 9.984C181.147 9.312 180.944 8.54933 180.944 7.696C180.944 6.832 181.147 6.06933 181.552 5.408C181.968 4.736 182.539 4.21333 183.264 3.84C183.99 3.456 184.816 3.264 185.744 3.264C186.651 3.264 187.44 3.456 188.112 3.84C188.784 4.21333 189.28 4.752 189.6 5.456L187.664 6.496C187.44 6.09067 187.158 5.792 186.816 5.6C186.486 5.408 186.123 5.312 185.728 5.312C185.302 5.312 184.918 5.408 184.576 5.6C184.235 5.792 183.963 6.064 183.76 6.416C183.568 6.768 183.472 7.19467 183.472 7.696C183.472 8.19733 183.568 8.624 183.76 8.976C183.963 9.328 184.235 9.6 184.576 9.792C184.918 9.984 185.302 10.08 185.728 10.08C186.123 10.08 186.486 9.98933 186.816 9.808C187.158 9.616 187.44 9.312 187.664 8.896L189.6 9.952C189.28 10.6453 188.784 11.184 188.112 11.568C187.44 11.9413 186.651 12.128 185.744 12.128ZM192.721 10.24L192.785 7.2L196.801 3.392H199.777L195.921 7.312L194.625 8.368L192.721 10.24ZM190.657 12V0.127999H193.153V12H190.657ZM197.073 12L194.161 8.384L195.729 6.448L200.097 12H197.073ZM207.948 12L204.284 0.799999H206.972L210.156 10.72H208.812L212.14 0.799999H214.54L217.74 10.72H216.444L219.708 0.799999H222.188L218.524 12H215.74L212.908 3.296H213.644L210.732 12H207.948ZM227.765 12V10.32L227.605 9.952V6.944C227.605 6.41067 227.44 5.99467 227.109 5.696C226.789 5.39733 226.293 5.248 225.621 5.248C225.163 5.248 224.709 5.32267 224.261 5.472C223.824 5.61067 223.451 5.80267 223.141 6.048L222.245 4.304C222.715 3.97333 223.28 3.71733 223.941 3.536C224.603 3.35467 225.275 3.264 225.957 3.264C227.269 3.264 228.288 3.57333 229.013 4.192C229.739 4.81067 230.101 5.776 230.101 7.088V12H227.765ZM225.141 12.128C224.469 12.128 223.893 12.016 223.413 11.792C222.933 11.5573 222.565 11.2427 222.309 10.848C222.053 10.4533 221.925 10.0107 221.925 9.52C221.925 9.008 222.048 8.56 222.293 8.176C222.549 7.792 222.949 7.49333 223.493 7.28C224.037 7.056 224.747 6.944 225.621 6.944H227.909V8.4H225.893C225.307 8.4 224.901 8.496 224.677 8.688C224.464 8.88 224.357 9.12 224.357 9.408C224.357 9.728 224.48 9.984 224.725 10.176C224.981 10.3573 225.328 10.448 225.765 10.448C226.181 10.448 226.555 10.352 226.885 10.16C227.216 9.95733 227.456 9.664 227.605 9.28L227.989 10.432C227.808 10.9867 227.477 11.408 226.997 11.696C226.517 11.984 225.899 12.128 225.141 12.128ZM232.027 12V0.127999H234.523V12H232.027ZM236.506 12V0.127999H239.002V12H236.506ZM245.257 12.128C244.276 12.128 243.412 11.936 242.665 11.552C241.929 11.168 241.359 10.6453 240.953 9.984C240.548 9.312 240.345 8.54933 240.345 7.696C240.345 6.832 240.543 6.06933 240.937 5.408C241.343 4.736 241.892 4.21333 242.585 3.84C243.279 3.456 244.063 3.264 244.937 3.264C245.78 3.264 246.537 3.44533 247.209 3.808C247.892 4.16 248.431 4.672 248.825 5.344C249.22 6.00533 249.417 6.8 249.417 7.728C249.417 7.824 249.412 7.936 249.401 8.064C249.391 8.18133 249.38 8.29333 249.369 8.4H242.377V6.944H248.057L247.097 7.376C247.097 6.928 247.007 6.53867 246.825 6.208C246.644 5.87733 246.393 5.62133 246.073 5.44C245.753 5.248 245.38 5.152 244.953 5.152C244.527 5.152 244.148 5.248 243.817 5.44C243.497 5.62133 243.247 5.88267 243.065 6.224C242.884 6.55467 242.793 6.94933 242.793 7.408V7.792C242.793 8.26133 242.895 8.67733 243.097 9.04C243.311 9.392 243.604 9.664 243.977 9.856C244.361 10.0373 244.809 10.128 245.321 10.128C245.78 10.128 246.18 10.0587 246.521 9.92C246.873 9.78133 247.193 9.57333 247.481 9.296L248.809 10.736C248.415 11.184 247.919 11.5307 247.321 11.776C246.724 12.0107 246.036 12.128 245.257 12.128ZM254.266 12.128C253.252 12.128 252.463 11.872 251.898 11.36C251.332 10.8373 251.05 10.064 251.05 9.04V1.488H253.546V9.008C253.546 9.37067 253.642 9.65333 253.834 9.856C254.026 10.048 254.287 10.144 254.618 10.144C255.012 10.144 255.348 10.0373 255.626 9.824L256.298 11.584C256.042 11.7653 255.732 11.904 255.37 12C255.018 12.0853 254.65 12.128 254.266 12.128ZM249.722 5.504V3.584H255.69V5.504H249.722Z" fill="#09376E"/>
</svg>
