<svg width="376" height="278" viewBox="0 0 376 278" fill="none" xmlns="http://www.w3.org/2000/svg">
<circle cx="16" cy="16" r="16" fill="#09376E"/>
<circle cx="360" cy="16" r="16" fill="#09376E"/>
<circle cx="28" cy="265" r="13" fill="#09376E"/>
<circle cx="123" cy="265" r="13" fill="#09376E"/>
<circle cx="218" cy="265" r="13" fill="#09376E"/>
<circle cx="59" cy="265" r="13" fill="#09376E"/>
<circle cx="154" cy="265" r="13" fill="#09376E"/>
<circle cx="249" cy="265" r="13" fill="#09376E"/>
<circle cx="282" cy="265" r="13" fill="#09376E"/>
<circle cx="92" cy="265" r="13" fill="#09376E"/>
<circle cx="187" cy="265" r="13" fill="#09376E"/>
<circle cx="315" cy="265" r="13" fill="#09376E"/>
<circle cx="346" cy="265" r="13" fill="#09376E"/>
<line x1="38" y1="15.5" x2="58" y2="15.5" stroke="black"/>
<line x1="143" y1="15.5" x2="163" y2="15.5" stroke="black"/>
<line x1="247" y1="15.5" x2="267" y2="15.5" stroke="black"/>
<line x1="73" y1="15.5" x2="93" y2="15.5" stroke="black"/>
<line x1="178" y1="15.5" x2="198" y2="15.5" stroke="black"/>
<line x1="282" y1="15.5" x2="302" y2="15.5" stroke="black"/>
<line x1="107" y1="15.5" x2="127" y2="15.5" stroke="black"/>
<line x1="212" y1="15.5" x2="232" y2="15.5" stroke="black"/>
<line x1="316" y1="15.5" x2="336" y2="15.5" stroke="black"/>
</svg>
