<svg width="22" height="22" viewBox="0 0 22 22" fill="none" xmlns="http://www.w3.org/2000/svg">
<path d="M5.10515 19.5211L9.12254 20.4051C9.69338 20.531 10.3009 20.4717 10.8205 20.2395L16.7044 17.6167C16.975 17.4955 17.1864 17.3007 17.3027 17.0653C17.419 16.83 17.4331 16.5686 17.3425 16.3256C17.2367 16.0429 17.0033 15.8124 16.6856 15.6759C16.3679 15.5394 16.0051 15.5149 15.664 15.6059L11.8768 16.6179C11.7256 16.4962 11.5431 16.4043 11.3428 16.3492L8.08907 15.4532C7.62478 15.3253 7.16721 15.3156 6.72473 15.306L5.10515 15.296V14.7195H1.16016V20.0861H5.10515V19.5211ZM6.53377 16.0684L6.70037 16.0723C7.10921 16.0811 7.46212 16.0887 7.79555 16.1805L11.0493 17.0766C11.1648 17.1081 11.2611 17.1754 11.3177 17.2643C11.3744 17.3532 11.3872 17.4568 11.3533 17.5533C11.3198 17.6511 11.2412 17.7341 11.1344 17.7844C11.0275 17.8348 10.901 17.8485 10.782 17.8226L7.07046 17.0281L6.83773 17.7702L10.5493 18.5645C10.666 18.5895 10.7861 18.6022 10.9066 18.6023C11.2097 18.6022 11.5044 18.5204 11.746 18.3693C11.9876 18.2182 12.1628 18.006 12.245 17.7651C12.2979 17.6136 12.3113 17.4603 12.2912 17.3129L15.9498 16.3352C16.0003 16.3216 16.0536 16.3165 16.1065 16.3201C16.1594 16.3237 16.2109 16.336 16.258 16.3563C16.3538 16.3975 16.4241 16.4671 16.4561 16.5522C16.4834 16.6255 16.4792 16.7043 16.444 16.7753C16.4089 16.8463 16.3452 16.9051 16.2635 16.9417L10.3797 19.5648C10.068 19.7043 9.70352 19.7399 9.36107 19.6643L5.10515 18.7278V16.0619L6.53377 16.0684ZM4.17703 19.3195H2.08828V15.4861H4.17703V19.3195ZM6.03652 13.9528L16.2459 13.9524V8.21105L6.03652 8.19629V13.9528ZM6.96465 8.9643L15.3178 8.97637V13.1858L6.96465 13.1861V8.9643Z" fill="black"/>
<path d="M16.8948 2.47889L12.8775 1.59493C12.3066 1.46904 11.6991 1.52829 11.1795 1.76053L5.29561 4.38329C5.02504 4.50446 4.81362 4.69928 4.6973 4.93465C4.58097 5.17002 4.56692 5.4314 4.65752 5.67436C4.76333 5.95707 4.99675 6.18764 5.3144 6.32411C5.63205 6.46058 5.99495 6.48511 6.33603 6.39407L10.1232 5.38207C10.2744 5.50379 10.4569 5.59566 10.6572 5.65079L13.9109 6.54683C14.3752 6.67467 14.8328 6.68444 15.2753 6.69403L16.8948 6.70399V7.28053L20.8398 7.28053V1.91386H16.8948V2.47889ZM15.4662 5.93158L15.2996 5.92774C14.8908 5.91893 14.5379 5.91126 14.2044 5.81945L10.9507 4.92341C10.8352 4.89191 10.7389 4.82463 10.6823 4.73573C10.6256 4.64683 10.6128 4.54324 10.6467 4.44674C10.6802 4.34894 10.7588 4.26592 10.8656 4.21555C10.9725 4.16518 11.099 4.1515 11.218 4.17744L14.9295 4.9719L15.1623 4.22977L11.4507 3.4355C11.334 3.41045 11.2139 3.39777 11.0934 3.39774C10.7903 3.3978 10.4956 3.4796 10.254 3.63073C10.0124 3.78185 9.83722 3.99401 9.75502 4.23494C9.70211 4.38636 9.68865 4.53969 9.70884 4.68709L6.05017 5.66478C5.9997 5.67839 5.94644 5.68354 5.89353 5.67992C5.84061 5.6763 5.78911 5.66398 5.74203 5.64369C5.64621 5.60249 5.5759 5.53291 5.54388 5.44781C5.51658 5.37451 5.52084 5.29566 5.55595 5.22466C5.59106 5.15366 5.65484 5.09489 5.73647 5.05834L11.6203 2.43519C11.932 2.29567 12.2965 2.26007 12.6389 2.33572L16.8948 3.2722V5.93809L15.4662 5.93158ZM17.823 2.68053H19.9117V6.51386H17.823V2.68053ZM15.9635 8.04719L5.7541 8.04758V13.789L15.9635 13.8037V8.04719ZM15.0354 13.0357L6.68223 13.0236V8.81424L15.0354 8.81386V13.0357Z" fill="black"/>
<path d="M10.0694 11.795V11.365H10.9194C11.2594 11.365 11.5061 11.295 11.6594 11.155C11.8128 11.015 11.8894 10.8367 11.8894 10.62C11.8894 10.36 11.8061 10.155 11.6394 10.005C11.4728 9.855 11.2194 9.78167 10.8794 9.785H9.68943V9.5H12.8944V9.785H11.5844L11.7394 9.645C11.9761 9.735 12.1428 9.86833 12.2394 10.045C12.3394 10.2183 12.3894 10.4133 12.3894 10.63C12.3894 10.8733 12.3311 11.0833 12.2144 11.26C12.0978 11.4333 11.9311 11.5667 11.7144 11.66C11.5011 11.75 11.2411 11.795 10.9344 11.795H10.0694ZM11.9094 13L10.9944 11.61H11.5344L12.4544 13H11.9094ZM9.68943 10.48V10.195H12.8944V10.48H9.68943Z" fill="black"/>
</svg>
