<svg width="30" height="30" viewBox="0 0 30 30" fill="none" xmlns="http://www.w3.org/2000/svg">
<path d="M15 30C6.729 30 0 23.271 0 15C0 6.729 6.729 0 15 0C23.271 0 30 6.729 30 15C30 23.271 23.271 30 15 30ZM15 1C7.28 1 1 7.28 1 15C1 22.72 7.28 29 15 29C22.72 29 29 22.72 29 15C29 7.28 22.72 1 15 1Z" fill="white"/>
<path d="M15.0008 26.9999C14.5889 26.9993 14.1836 26.897 13.8207 26.7022C13.4579 26.5074 13.1487 26.2261 12.9206 25.8831C12.6925 25.5402 12.5526 25.1463 12.5132 24.7363C12.4738 24.3264 12.5362 23.913 12.6948 23.5329C12.7188 23.4704 12.755 23.4134 12.8014 23.3652C12.8479 23.3169 12.9035 23.2785 12.9651 23.2522C13.0266 23.2259 13.0928 23.2122 13.1597 23.212C13.2267 23.2117 13.293 23.2249 13.3547 23.2507C13.4165 23.2766 13.4724 23.3146 13.5192 23.3624C13.566 23.4103 13.6027 23.4671 13.6271 23.5294C13.6516 23.5917 13.6632 23.6583 13.6615 23.7252C13.6597 23.7921 13.6445 23.858 13.6168 23.9189C13.5217 24.147 13.4843 24.395 13.508 24.641C13.5317 24.8869 13.6158 25.1233 13.7526 25.329C13.8895 25.5347 14.075 25.7035 14.2928 25.8203C14.5105 25.9372 14.7537 25.9986 15.0008 25.9989C15.8278 25.9989 16.5008 25.3259 16.5008 24.4989C16.5008 23.6719 15.8278 22.9999 15.0008 22.9999C14.8682 22.9999 14.741 22.9473 14.6472 22.8535C14.5535 22.7597 14.5008 22.6325 14.5008 22.4999C14.5008 22.3673 14.5535 22.2402 14.6472 22.1464C14.741 22.0526 14.8682 21.9999 15.0008 21.9999C16.3788 21.9999 17.5008 23.1209 17.5008 24.4999C17.5008 25.8789 16.3788 26.9999 15.0008 26.9999ZM15.0008 20.9999C13.8978 20.9999 13.0008 20.1029 13.0008 18.9999V18.4999C13.0008 16.5769 13.5628 15.1809 14.7688 14.1039C15.1688 13.7469 15.5968 13.4399 15.9748 13.1699C17.2388 12.2629 18.0008 11.7149 18.0008 9.99994C18.0008 7.85194 16.3948 7.27594 15.9018 7.14994C14.6768 6.83794 12.9438 7.27794 11.7568 9.45594C11.5025 9.92091 11.0744 10.2662 10.5662 10.4164C10.0579 10.5665 9.51088 10.5091 9.04478 10.2569C8.81357 10.1322 8.60946 9.96281 8.44431 9.75852C8.27916 9.55423 8.15627 9.31914 8.08278 9.06694C8.00769 8.81498 7.98334 8.55063 8.01115 8.2892C8.03895 8.02777 8.11837 7.77445 8.24479 7.54394C8.33479 7.37594 8.43078 7.21294 8.52878 7.05294C8.59867 6.94022 8.71047 6.85988 8.83959 6.82959C8.96871 6.79931 9.10457 6.82155 9.21729 6.89144C9.33 6.96132 9.41034 7.07312 9.44063 7.20224C9.47092 7.33136 9.44867 7.46722 9.37879 7.57994C9.28979 7.72294 9.20478 7.86994 9.12179 8.02094C8.99379 8.25594 8.96478 8.52694 9.04078 8.78294C9.11678 9.03894 9.28678 9.25094 9.52178 9.37794C9.75477 9.50408 10.0282 9.53282 10.2824 9.45786C10.5365 9.38289 10.7506 9.21034 10.8778 8.97794C12.3378 6.29494 14.5578 5.77694 16.1478 6.18194C17.5278 6.53194 19.0008 7.71994 19.0008 9.99994C19.0008 12.2279 17.8688 13.0399 16.5588 13.9819C16.1998 14.2389 15.7948 14.5289 15.4348 14.8499C14.4568 15.7239 14.0008 16.8829 14.0008 18.4999V18.9999C14.0123 19.2574 14.1227 19.5005 14.309 19.6787C14.4952 19.8568 14.743 19.9562 15.0008 19.9562C15.2585 19.9562 15.5063 19.8568 15.6926 19.6787C15.8789 19.5005 15.9893 19.2574 16.0008 18.9999V18.4999C16.0008 17.1409 16.3958 16.6739 16.7658 16.3429C17.0328 16.1049 17.3688 15.8639 17.7238 15.6079C19.1848 14.5579 21.0008 13.2529 21.0008 9.99994C21.0008 7.21994 19.2488 4.90694 16.6418 4.24294C14.4948 3.69694 12.2938 4.34494 10.6048 6.02394C10.5585 6.07154 10.5032 6.10946 10.4422 6.13548C10.3811 6.1615 10.3155 6.17509 10.2491 6.17547C10.1827 6.17585 10.1169 6.16301 10.0555 6.1377C9.99417 6.11238 9.93846 6.0751 9.89165 6.02803C9.84485 5.98096 9.80788 5.92504 9.78292 5.86353C9.75795 5.80202 9.74548 5.73616 9.74624 5.66978C9.74699 5.6034 9.76096 5.53784 9.78732 5.47692C9.81369 5.41599 9.85192 5.36093 9.89978 5.31494C11.8448 3.37994 14.3908 2.63394 16.8888 3.27394C19.9458 4.05294 22.0008 6.75494 22.0008 9.99994C22.0008 13.7659 19.7788 15.3619 18.3088 16.4189C17.9828 16.6529 17.6758 16.8719 17.4328 17.0889C17.2498 17.2509 17.0008 17.4739 17.0008 18.4999V18.9999C17.0008 20.1029 16.1038 20.9999 15.0008 20.9999Z" fill="white"/>
</svg>
