<svg width="32" height="30" viewBox="0 0 32 30" fill="none" xmlns="http://www.w3.org/2000/svg">
<path d="M30.0469 0H10.5459C9.46875 0 8.59278 0.875975 8.59278 1.95312V3.6958H1.95312C0.875975 3.6958 0 4.57177 0 5.64892V13.5395C0 14.6167 0.875975 15.4927 1.95312 15.4927H8.59278V28.0322C8.59278 29.1094 9.46875 29.9854 10.5459 29.9854H26.5981C26.7346 29.9854 26.8629 29.9276 26.9517 29.8389C27.9015 28.8882 31.7362 25.0578 31.8626 24.9233C31.9195 24.8624 31.9471 24.8056 31.9693 24.7377C31.9842 24.6923 32 24.5917 32 24.5835V1.95312C32 0.875975 31.124 0 30.0469 0ZM1 13.5395V5.64892C1 5.12353 1.42773 4.6958 1.95312 4.6958C7.87015 4.6958 12.1709 4.6958 18.0635 4.6958C18.5889 4.6958 19.0166 5.12353 19.0166 5.64892V13.5395C19.0166 14.0649 18.5889 14.4927 18.0635 14.4927C12.1709 14.4927 7.87014 14.4927 1.95312 14.4927C1.42773 14.4927 1 14.0649 1 13.5395ZM9.59278 28.0322V15.4927H18.0635C19.1406 15.4927 20.0166 14.6167 20.0166 13.5395V5.64892C20.0166 4.57177 19.1406 3.6958 18.0635 3.6958H9.59278V1.95312C9.59278 1.42773 10.0205 1 10.5459 1H30.0469C30.5723 1 31 1.42773 31 1.95312V24.0835H26.5972C26.3208 24.0835 26.0972 24.3071 26.0972 24.5835V28.9854H10.5459C10.0205 28.9854 9.59278 28.5576 9.59278 28.0322ZM27.0972 28.2783V25.0835H30.292L27.0972 28.2783Z" fill="#09376E"/>
<path d="M12.816 12.5552H2.4375V13.5552H12.816V12.5552Z" fill="#09376E"/>
<path d="M12.816 10.7314H2.4375V11.7314H12.816V10.7314Z" fill="#09376E"/>
<path d="M28.8957 17.168H11.6992V18.168H28.8957V17.168Z" fill="#09376E"/>
<path d="M28.8957 19.6802H11.6992V20.6802H28.8957V19.6802Z" fill="#09376E"/>
<path d="M28.8957 22.1929H11.6992V23.1929H28.8957V22.1929Z" fill="#09376E"/>
<path d="M24.6472 12.186H23.1094C23.1094 13.9351 23.8487 14.7566 25.7502 14.9095V16.0597H26.2902V14.9095C28.227 14.8034 28.896 13.4653 28.896 12.3858C28.896 10.7674 27.8317 10.3068 26.2902 9.81479V7.61987C26.748 7.61987 27.1823 7.7489 27.2526 8.82892H28.767C28.6146 6.73962 27.1704 6.4696 26.2902 6.37595V5.61279H25.7502V6.37595C24.0838 6.39939 23.2853 7.53769 23.2853 8.81745C23.2853 10.437 24.5999 10.8948 25.7502 11.2002V13.6651C24.8465 13.5007 24.7174 13.0075 24.6472 12.186ZM26.2902 11.3994C26.7599 11.5289 27.3233 11.8338 27.3233 12.5148C27.3233 13.4185 26.6777 13.6417 26.2902 13.6651V11.3994ZM24.7643 8.53549C24.7643 8.1484 25.0577 7.65524 25.7502 7.61987V9.65087C25.2923 9.54476 24.7643 9.29867 24.7643 8.53549Z" fill="#09376E"/>
</svg>
